<?xml version="1.0" encoding="UTF-8" standalone="no"?>
<!DOCTYPE svg PUBLIC "-//W3C//DTD SVG 1.1//EN"
 "http://www.w3.org/Graphics/SVG/1.1/DTD/svg11.dtd">
<!-- Generated by graphviz version 2.43.0 (0)
 -->
<!-- Title: include/board.h Pages: 1 -->
<svg width="246pt" height="204pt"
 viewBox="0.00 0.00 246.21 204.00" xmlns="http://www.w3.org/2000/svg" xmlns:xlink="http://www.w3.org/1999/xlink">
<g id="graph0" class="graph" transform="scale(1 1) rotate(0) translate(4 200)">
<title>include/board.h</title>
<!-- Node1 -->
<g id="node1" class="node">
<title>Node1</title>
<g id="a_node1"><a xlink:title=" ">
<polygon fill="#bfbfbf" stroke="black" points="34.71,-174.5 34.71,-195.5 133.71,-195.5 133.71,-174.5 34.71,-174.5"/>
<text text-anchor="middle" x="84.21" y="-181.9" font-family="Arial" font-size="12.00">include/board.h</text>
</a>
</g>
</g>
<!-- Node2 -->
<g id="node2" class="node">
<title>Node2</title>
<g id="a_node2"><a xlink:title=" ">
<polygon fill="none" stroke="#bfbfbf" points="10.71,-58.5 10.71,-79.5 59.71,-79.5 59.71,-58.5 10.71,-58.5"/>
<text text-anchor="middle" x="35.21" y="-65.9" font-family="Arial" font-size="12.00">vector</text>
</a>
</g>
</g>
<!-- Node1&#45;&gt;Node2 -->
<g id="edge1" class="edge">
<title>Node1&#45;&gt;Node2</title>
<path fill="none" stroke="midnightblue" d="M70.51,-174.42C59.9,-166.13 45.9,-153.12 39.21,-138 32.49,-122.81 31.94,-103.82 32.81,-89.77"/>
<polygon fill="midnightblue" stroke="midnightblue" points="36.31,-90.01 33.73,-79.73 29.34,-89.37 36.31,-90.01"/>
</g>
<!-- Node3 -->
<g id="node3" class="node">
<title>Node3</title>
<g id="a_node3"><a xlink:title=" ">
<polygon fill="none" stroke="#bfbfbf" points="18.21,-0.5 18.21,-21.5 64.21,-21.5 64.21,-0.5 18.21,-0.5"/>
<text text-anchor="middle" x="41.21" y="-7.9" font-family="Arial" font-size="12.00">string</text>
</a>
</g>
</g>
<!-- Node1&#45;&gt;Node3 -->
<g id="edge2" class="edge">
<title>Node1&#45;&gt;Node3</title>
<path fill="none" stroke="midnightblue" d="M69.58,-174.49C57.51,-166.06 40.59,-152.81 29.21,-138 11.89,-115.45 8.36,-107.76 2.21,-80 0.1,-70.45 -1.16,-67.18 2.21,-58 6.27,-46.94 14.29,-36.72 22.01,-28.73"/>
<polygon fill="midnightblue" stroke="midnightblue" points="24.7,-31 29.47,-21.55 19.84,-25.96 24.7,-31"/>
</g>
<!-- Node4 -->
<g id="node4" class="node">
<title>Node4</title>
<g id="a_node4"><a xlink:href="cell_8h.html" target="_top" xlink:title=" ">
<polygon fill="none" stroke="black" points="77.71,-58.5 77.71,-79.5 122.71,-79.5 122.71,-58.5 77.71,-58.5"/>
<text text-anchor="middle" x="100.21" y="-65.9" font-family="Arial" font-size="12.00">cell.h</text>
</a>
</g>
</g>
<!-- Node1&#45;&gt;Node4 -->
<g id="edge3" class="edge">
<title>Node1&#45;&gt;Node4</title>
<path fill="none" stroke="midnightblue" d="M98.59,-174.19C109.28,-165.94 123.05,-153.1 129.21,-138 136.21,-120.84 126.09,-101.41 115.94,-87.72"/>
<polygon fill="midnightblue" stroke="midnightblue" points="118.43,-85.24 109.44,-79.64 112.98,-89.63 118.43,-85.24"/>
</g>
<!-- Node5 -->
<g id="node5" class="node">
<title>Node5</title>
<g id="a_node5"><a xlink:href="graphics_8h.html" target="_top" xlink:title=" ">
<polygon fill="none" stroke="black" points="48.21,-116.5 48.21,-137.5 120.21,-137.5 120.21,-116.5 48.21,-116.5"/>
<text text-anchor="middle" x="84.21" y="-123.9" font-family="Arial" font-size="12.00">graphics.h</text>
</a>
</g>
</g>
<!-- Node1&#45;&gt;Node5 -->
<g id="edge5" class="edge">
<title>Node1&#45;&gt;Node5</title>
<path fill="none" stroke="midnightblue" d="M84.21,-174.25C84.21,-166.94 84.21,-156.69 84.21,-147.7"/>
<polygon fill="midnightblue" stroke="midnightblue" points="87.71,-147.64 84.21,-137.64 80.71,-147.64 87.71,-147.64"/>
</g>
<!-- Node6 -->
<g id="node6" class="node">
<title>Node6</title>
<g id="a_node6"><a xlink:title=" ">
<polygon fill="none" stroke="#bfbfbf" points="176.21,-116.5 176.21,-137.5 238.21,-137.5 238.21,-116.5 176.21,-116.5"/>
<text text-anchor="middle" x="207.21" y="-123.9" font-family="Arial" font-size="12.00">iostream</text>
</a>
</g>
</g>
<!-- Node1&#45;&gt;Node6 -->
<g id="edge8" class="edge">
<title>Node1&#45;&gt;Node6</title>
<path fill="none" stroke="midnightblue" d="M105.36,-174.37C125.1,-165.38 154.78,-151.87 177.02,-141.75"/>
<polygon fill="midnightblue" stroke="midnightblue" points="178.69,-144.83 186.34,-137.5 175.79,-138.46 178.69,-144.83"/>
</g>
<!-- Node4&#45;&gt;Node3 -->
<g id="edge4" class="edge">
<title>Node4&#45;&gt;Node3</title>
<path fill="none" stroke="midnightblue" d="M89.94,-58.25C81.39,-50.14 69.03,-38.41 58.9,-28.79"/>
<polygon fill="midnightblue" stroke="midnightblue" points="61.03,-25.99 51.37,-21.64 56.21,-31.07 61.03,-25.99"/>
</g>
<!-- Node5&#45;&gt;Node2 -->
<g id="edge6" class="edge">
<title>Node5&#45;&gt;Node2</title>
<path fill="none" stroke="midnightblue" d="M75.68,-116.25C68.72,-108.3 58.72,-96.87 50.41,-87.37"/>
<polygon fill="midnightblue" stroke="midnightblue" points="52.87,-84.86 43.65,-79.64 47.6,-89.47 52.87,-84.86"/>
</g>
<!-- Node5&#45;&gt;Node4 -->
<g id="edge7" class="edge">
<title>Node5&#45;&gt;Node4</title>
<path fill="none" stroke="midnightblue" d="M87,-116.25C89.11,-108.86 92.08,-98.47 94.67,-89.41"/>
<polygon fill="midnightblue" stroke="midnightblue" points="98.08,-90.22 97.46,-79.64 91.34,-88.3 98.08,-90.22"/>
</g>
</g>
</svg>
