<?xml version="1.0" encoding="UTF-8" standalone="no"?>
<!DOCTYPE svg PUBLIC "-//W3C//DTD SVG 1.1//EN"
 "http://www.w3.org/Graphics/SVG/1.1/DTD/svg11.dtd">
<!-- Generated by graphviz version 2.43.0 (0)
 -->
<!-- Title: include/board.h Pages: 1 -->
<svg width="1606pt" height="146pt"
 viewBox="0.00 0.00 1605.50 146.00" xmlns="http://www.w3.org/2000/svg" xmlns:xlink="http://www.w3.org/1999/xlink">
<g id="graph0" class="graph" transform="scale(1 1) rotate(0) translate(4 142)">
<title>include/board.h</title>
<!-- Node1 -->
<g id="node1" class="node">
<title>Node1</title>
<g id="a_node1"><a xlink:title=" ">
<polygon fill="#bfbfbf" stroke="black" points="803.5,-116.5 803.5,-137.5 902.5,-137.5 902.5,-116.5 803.5,-116.5"/>
<text text-anchor="middle" x="853" y="-123.9" font-family="Arial" font-size="12.00">include/board.h</text>
</a>
</g>
</g>
<!-- Node2 -->
<g id="node2" class="node">
<title>Node2</title>
<g id="a_node2"><a xlink:href="Board_8cpp.html" target="_top" xlink:title=" ">
<polygon fill="none" stroke="black" points="91,-58.5 91,-79.5 181,-79.5 181,-58.5 91,-58.5"/>
<text text-anchor="middle" x="136" y="-65.9" font-family="Arial" font-size="12.00">src/Board.cpp</text>
</a>
</g>
</g>
<!-- Node1&#45;&gt;Node2 -->
<g id="edge1" class="edge">
<title>Node1&#45;&gt;Node2</title>
<path fill="none" stroke="midnightblue" d="M793.19,-124.13C676.7,-119.99 411.39,-108.09 190,-80 187.07,-79.63 184.05,-79.2 181.02,-78.73"/>
<polygon fill="midnightblue" stroke="midnightblue" points="793.21,-127.63 803.33,-124.49 793.45,-120.64 793.21,-127.63"/>
</g>
<!-- Node3 -->
<g id="node3" class="node">
<title>Node3</title>
<g id="a_node3"><a xlink:href="game_8h.html" target="_top" xlink:title=" ">
<polygon fill="none" stroke="black" points="199,-58.5 199,-79.5 297,-79.5 297,-58.5 199,-58.5"/>
<text text-anchor="middle" x="248" y="-65.9" font-family="Arial" font-size="12.00">include/game.h</text>
</a>
</g>
</g>
<!-- Node1&#45;&gt;Node3 -->
<g id="edge2" class="edge">
<title>Node1&#45;&gt;Node3</title>
<path fill="none" stroke="midnightblue" d="M793.16,-122.67C692.36,-116.69 482.43,-102.59 306,-80 303.06,-79.62 300.04,-79.2 297,-78.76"/>
<polygon fill="midnightblue" stroke="midnightblue" points="793.26,-126.19 803.44,-123.28 793.67,-119.2 793.26,-126.19"/>
</g>
<!-- Node7 -->
<g id="node7" class="node">
<title>Node7</title>
<g id="a_node7"><a xlink:href="naturaldisaster_8h.html" target="_top" xlink:title=" ">
<polygon fill="none" stroke="black" points="780,-58.5 780,-79.5 926,-79.5 926,-58.5 780,-58.5"/>
<text text-anchor="middle" x="853" y="-65.9" font-family="Arial" font-size="12.00">include/naturaldisaster.h</text>
</a>
</g>
</g>
<!-- Node1&#45;&gt;Node7 -->
<g id="edge6" class="edge">
<title>Node1&#45;&gt;Node7</title>
<path fill="none" stroke="midnightblue" d="M853,-106.16C853,-97.16 853,-86.92 853,-79.64"/>
<polygon fill="midnightblue" stroke="midnightblue" points="849.5,-106.25 853,-116.25 856.5,-106.25 849.5,-106.25"/>
</g>
<!-- Node10 -->
<g id="node10" class="node">
<title>Node10</title>
<g id="a_node10"><a xlink:href="testnaturaldisaster_8cpp.html" target="_top" xlink:title=" ">
<polygon fill="none" stroke="black" points="1056,-0.5 1056,-21.5 1220,-21.5 1220,-0.5 1056,-0.5"/>
<text text-anchor="middle" x="1138" y="-7.9" font-family="Arial" font-size="12.00">tests/testnaturaldisaster.cpp</text>
</a>
</g>
</g>
<!-- Node1&#45;&gt;Node10 -->
<g id="edge29" class="edge">
<title>Node1&#45;&gt;Node10</title>
<path fill="none" stroke="midnightblue" d="M879.18,-111.43C895.31,-102.43 916.39,-90.61 935,-80 951.95,-70.34 955.01,-65.57 973,-58 1011.79,-41.68 1058.1,-29.35 1091.78,-21.58"/>
<polygon fill="midnightblue" stroke="midnightblue" points="877.34,-108.45 870.32,-116.38 880.75,-114.56 877.34,-108.45"/>
</g>
<!-- Node11 -->
<g id="node11" class="node">
<title>Node11</title>
<g id="a_node11"><a xlink:href="politicalevent_8h.html" target="_top" xlink:title=" ">
<polygon fill="none" stroke="black" points="479.5,-58.5 479.5,-79.5 618.5,-79.5 618.5,-58.5 479.5,-58.5"/>
<text text-anchor="middle" x="549" y="-65.9" font-family="Arial" font-size="12.00">include/politicalevent.h</text>
</a>
</g>
</g>
<!-- Node1&#45;&gt;Node11 -->
<g id="edge12" class="edge">
<title>Node1&#45;&gt;Node11</title>
<path fill="none" stroke="midnightblue" d="M793.34,-115.01C737.25,-104.68 654.15,-89.37 600.79,-79.54"/>
<polygon fill="midnightblue" stroke="midnightblue" points="793.01,-118.51 803.48,-116.88 794.28,-111.62 793.01,-118.51"/>
</g>
<!-- Node13 -->
<g id="node13" class="node">
<title>Node13</title>
<g id="a_node13"><a xlink:href="stealcardevent_8h.html" target="_top" xlink:title=" ">
<polygon fill="none" stroke="black" points="315,-58.5 315,-79.5 461,-79.5 461,-58.5 315,-58.5"/>
<text text-anchor="middle" x="388" y="-65.9" font-family="Arial" font-size="12.00">include/stealcardevent.h</text>
</a>
</g>
</g>
<!-- Node1&#45;&gt;Node13 -->
<g id="edge17" class="edge">
<title>Node1&#45;&gt;Node13</title>
<path fill="none" stroke="midnightblue" d="M793.18,-118.85C717.8,-109.83 584.3,-93.83 470,-80 467.15,-79.66 464.25,-79.3 461.32,-78.95"/>
<polygon fill="midnightblue" stroke="midnightblue" points="793.07,-122.36 803.42,-120.07 793.9,-115.41 793.07,-122.36"/>
</g>
<!-- Node15 -->
<g id="node15" class="node">
<title>Node15</title>
<g id="a_node15"><a xlink:href="tradeevent_8h.html" target="_top" xlink:title=" ">
<polygon fill="none" stroke="black" points="636.5,-58.5 636.5,-79.5 761.5,-79.5 761.5,-58.5 636.5,-58.5"/>
<text text-anchor="middle" x="699" y="-65.9" font-family="Arial" font-size="12.00">include/tradeevent.h</text>
</a>
</g>
</g>
<!-- Node1&#45;&gt;Node15 -->
<g id="edge22" class="edge">
<title>Node1&#45;&gt;Node15</title>
<path fill="none" stroke="midnightblue" d="M817.04,-112.92C788.89,-102.69 750.39,-88.69 725.13,-79.5"/>
<polygon fill="midnightblue" stroke="midnightblue" points="815.93,-116.25 826.53,-116.37 818.32,-109.67 815.93,-116.25"/>
</g>
<!-- Node17 -->
<g id="node17" class="node">
<title>Node17</title>
<g id="a_node17"><a xlink:href="testaiboard_8cpp.html" target="_top" xlink:title=" ">
<polygon fill="none" stroke="black" points="982,-58.5 982,-79.5 1108,-79.5 1108,-58.5 982,-58.5"/>
<text text-anchor="middle" x="1045" y="-65.9" font-family="Arial" font-size="12.00">tests/testaiboard.cpp</text>
</a>
</g>
</g>
<!-- Node1&#45;&gt;Node17 -->
<g id="edge27" class="edge">
<title>Node1&#45;&gt;Node17</title>
<path fill="none" stroke="midnightblue" d="M896.01,-113.46C931.25,-103.18 980.37,-88.85 1012.42,-79.5"/>
<polygon fill="midnightblue" stroke="midnightblue" points="894.63,-110.21 886.01,-116.37 896.59,-116.93 894.63,-110.21"/>
</g>
<!-- Node18 -->
<g id="node18" class="node">
<title>Node18</title>
<g id="a_node18"><a xlink:href="testgraphics_8cpp.html" target="_top" xlink:title=" ">
<polygon fill="none" stroke="black" points="1126.5,-58.5 1126.5,-79.5 1257.5,-79.5 1257.5,-58.5 1126.5,-58.5"/>
<text text-anchor="middle" x="1192" y="-65.9" font-family="Arial" font-size="12.00">tests/testgraphics.cpp</text>
</a>
</g>
</g>
<!-- Node1&#45;&gt;Node18 -->
<g id="edge28" class="edge">
<title>Node1&#45;&gt;Node18</title>
<path fill="none" stroke="midnightblue" d="M912.75,-116.13C975.21,-105.81 1072.56,-89.73 1134.26,-79.54"/>
<polygon fill="midnightblue" stroke="midnightblue" points="911.95,-112.71 902.66,-117.8 913.09,-119.62 911.95,-112.71"/>
</g>
<!-- Node19 -->
<g id="node19" class="node">
<title>Node19</title>
<g id="a_node19"><a xlink:href="testplayerboard_8cpp.html" target="_top" xlink:title=" ">
<polygon fill="none" stroke="black" points="1275.5,-58.5 1275.5,-79.5 1424.5,-79.5 1424.5,-58.5 1275.5,-58.5"/>
<text text-anchor="middle" x="1350" y="-65.9" font-family="Arial" font-size="12.00">tests/testplayerboard.cpp</text>
</a>
</g>
</g>
<!-- Node1&#45;&gt;Node19 -->
<g id="edge30" class="edge">
<title>Node1&#45;&gt;Node19</title>
<path fill="none" stroke="midnightblue" d="M912.67,-119.54C993.15,-110.8 1140.93,-94.6 1267,-80 1269.74,-79.68 1272.53,-79.36 1275.35,-79.03"/>
<polygon fill="midnightblue" stroke="midnightblue" points="912.29,-116.07 902.72,-120.63 913.04,-123.03 912.29,-116.07"/>
</g>
<!-- Node20 -->
<g id="node20" class="node">
<title>Node20</title>
<g id="a_node20"><a xlink:href="testscoringsystm_8cpp.html" target="_top" xlink:title=" ">
<polygon fill="none" stroke="black" points="1442.5,-58.5 1442.5,-79.5 1597.5,-79.5 1597.5,-58.5 1442.5,-58.5"/>
<text text-anchor="middle" x="1520" y="-65.9" font-family="Arial" font-size="12.00">tests/testscoringsystm.cpp</text>
</a>
</g>
</g>
<!-- Node1&#45;&gt;Node20 -->
<g id="edge31" class="edge">
<title>Node1&#45;&gt;Node20</title>
<path fill="none" stroke="midnightblue" d="M912.92,-121.99C1018.37,-114.76 1243.96,-98.57 1434,-80 1436.69,-79.74 1439.43,-79.46 1442.2,-79.18"/>
<polygon fill="midnightblue" stroke="midnightblue" points="912.53,-118.5 902.79,-122.68 913.01,-125.49 912.53,-118.5"/>
</g>
<!-- Node4 -->
<g id="node4" class="node">
<title>Node4</title>
<g id="a_node4"><a xlink:href="Game_8cpp.html" target="_top" xlink:title=" ">
<polygon fill="none" stroke="black" points="548,-0.5 548,-21.5 638,-21.5 638,-0.5 548,-0.5"/>
<text text-anchor="middle" x="593" y="-7.9" font-family="Arial" font-size="12.00">src/Game.cpp</text>
</a>
</g>
</g>
<!-- Node3&#45;&gt;Node4 -->
<g id="edge3" class="edge">
<title>Node3&#45;&gt;Node4</title>
<path fill="none" stroke="midnightblue" d="M306.97,-57.86C410.63,-41.01 438.22,-38.81 538,-22 541.25,-21.45 544.61,-20.87 547.99,-20.28"/>
<polygon fill="midnightblue" stroke="midnightblue" points="306.34,-54.42 297.04,-59.49 307.47,-61.33 306.34,-54.42"/>
</g>
<!-- Node5 -->
<g id="node5" class="node">
<title>Node5</title>
<g id="a_node5"><a xlink:href="main_8cpp.html" target="_top" xlink:title=" ">
<polygon fill="none" stroke="black" points="296,-0.5 296,-21.5 380,-21.5 380,-0.5 296,-0.5"/>
<text text-anchor="middle" x="338" y="-7.9" font-family="Arial" font-size="12.00">src/main.cpp</text>
</a>
</g>
</g>
<!-- Node3&#45;&gt;Node5 -->
<g id="edge4" class="edge">
<title>Node3&#45;&gt;Node5</title>
<path fill="none" stroke="midnightblue" d="M272.48,-52.77C288.43,-42.85 308.75,-30.2 322.5,-21.64"/>
<polygon fill="midnightblue" stroke="midnightblue" points="270.32,-49.99 263.68,-58.25 274.02,-55.93 270.32,-49.99"/>
</g>
<!-- Node6 -->
<g id="node6" class="node">
<title>Node6</title>
<g id="a_node6"><a xlink:href="testgame_8cpp.html" target="_top" xlink:title=" ">
<polygon fill="none" stroke="black" points="0,-0.5 0,-21.5 116,-21.5 116,-0.5 0,-0.5"/>
<text text-anchor="middle" x="58" y="-7.9" font-family="Arial" font-size="12.00">tests/testgame.cpp</text>
</a>
</g>
</g>
<!-- Node3&#45;&gt;Node6 -->
<g id="edge5" class="edge">
<title>Node3&#45;&gt;Node6</title>
<path fill="none" stroke="midnightblue" d="M205.44,-55.46C170.56,-45.18 121.95,-30.85 90.24,-21.5"/>
<polygon fill="midnightblue" stroke="midnightblue" points="204.76,-58.9 215.34,-58.37 206.74,-52.19 204.76,-58.9"/>
</g>
<!-- Node7&#45;&gt;Node4 -->
<g id="edge8" class="edge">
<title>Node7&#45;&gt;Node4</title>
<path fill="none" stroke="midnightblue" d="M798.71,-56.31C750.8,-45.99 681.83,-31.13 637.22,-21.52"/>
<polygon fill="midnightblue" stroke="midnightblue" points="798.09,-59.75 808.6,-58.44 799.56,-52.91 798.09,-59.75"/>
</g>
<!-- Node7&#45;&gt;Node5 -->
<g id="edge9" class="edge">
<title>Node7&#45;&gt;Node5</title>
<path fill="none" stroke="midnightblue" d="M769.66,-57.89C599.75,-39.92 554.56,-45.97 389,-22 386.14,-21.59 383.2,-21.12 380.25,-20.62"/>
<polygon fill="midnightblue" stroke="midnightblue" points="769.38,-61.38 779.69,-58.96 770.12,-54.42 769.38,-61.38"/>
</g>
<!-- Node8 -->
<g id="node8" class="node">
<title>Node8</title>
<g id="a_node8"><a xlink:href="Deck_8cpp.html" target="_top" xlink:title=" ">
<polygon fill="none" stroke="black" points="656,-0.5 656,-21.5 742,-21.5 742,-0.5 656,-0.5"/>
<text text-anchor="middle" x="699" y="-7.9" font-family="Arial" font-size="12.00">src/Deck.cpp</text>
</a>
</g>
</g>
<!-- Node7&#45;&gt;Node8 -->
<g id="edge7" class="edge">
<title>Node7&#45;&gt;Node8</title>
<path fill="none" stroke="midnightblue" d="M817.04,-54.92C788.89,-44.69 750.39,-30.69 725.13,-21.5"/>
<polygon fill="midnightblue" stroke="midnightblue" points="815.93,-58.25 826.53,-58.37 818.32,-51.67 815.93,-58.25"/>
</g>
<!-- Node9 -->
<g id="node9" class="node">
<title>Node9</title>
<g id="a_node9"><a xlink:href="NaturalDisaster_8cpp.html" target="_top" xlink:title=" ">
<polygon fill="none" stroke="black" points="898,-0.5 898,-21.5 1038,-21.5 1038,-0.5 898,-0.5"/>
<text text-anchor="middle" x="968" y="-7.9" font-family="Arial" font-size="12.00">src/NaturalDisaster.cpp</text>
</a>
</g>
</g>
<!-- Node7&#45;&gt;Node9 -->
<g id="edge10" class="edge">
<title>Node7&#45;&gt;Node9</title>
<path fill="none" stroke="midnightblue" d="M881.8,-53.97C902.62,-43.83 930.2,-30.41 948.49,-21.5"/>
<polygon fill="midnightblue" stroke="midnightblue" points="880.23,-50.85 872.77,-58.37 883.29,-57.14 880.23,-50.85"/>
</g>
<!-- Node7&#45;&gt;Node10 -->
<g id="edge11" class="edge">
<title>Node7&#45;&gt;Node10</title>
<path fill="none" stroke="midnightblue" d="M911.52,-56.5C964.07,-46.17 1040.32,-31.19 1089.53,-21.52"/>
<polygon fill="midnightblue" stroke="midnightblue" points="910.81,-53.07 901.67,-58.44 912.16,-59.94 910.81,-53.07"/>
</g>
<!-- Node11&#45;&gt;Node4 -->
<g id="edge14" class="edge">
<title>Node11&#45;&gt;Node4</title>
<path fill="none" stroke="midnightblue" d="M562.98,-50.21C570.41,-40.75 579.27,-29.48 585.42,-21.64"/>
<polygon fill="midnightblue" stroke="midnightblue" points="560.09,-48.22 556.66,-58.25 565.59,-52.54 560.09,-48.22"/>
</g>
<!-- Node11&#45;&gt;Node5 -->
<g id="edge15" class="edge">
<title>Node11&#45;&gt;Node5</title>
<path fill="none" stroke="midnightblue" d="M502.73,-55.72C463.93,-45.42 409.32,-30.93 373.8,-21.5"/>
<polygon fill="midnightblue" stroke="midnightblue" points="502.16,-59.19 512.73,-58.37 503.96,-52.43 502.16,-59.19"/>
</g>
<!-- Node11&#45;&gt;Node8 -->
<g id="edge13" class="edge">
<title>Node11&#45;&gt;Node8</title>
<path fill="none" stroke="midnightblue" d="M584.39,-54.79C611.78,-44.56 649.05,-30.65 673.55,-21.5"/>
<polygon fill="midnightblue" stroke="midnightblue" points="582.93,-51.6 574.79,-58.37 585.38,-58.15 582.93,-51.6"/>
</g>
<!-- Node12 -->
<g id="node12" class="node">
<title>Node12</title>
<g id="a_node12"><a xlink:href="PoliticalEvent_8cpp.html" target="_top" xlink:title=" ">
<polygon fill="none" stroke="black" points="398.5,-0.5 398.5,-21.5 529.5,-21.5 529.5,-0.5 398.5,-0.5"/>
<text text-anchor="middle" x="464" y="-7.9" font-family="Arial" font-size="12.00">src/PoliticalEvent.cpp</text>
</a>
</g>
</g>
<!-- Node11&#45;&gt;Node12 -->
<g id="edge16" class="edge">
<title>Node11&#45;&gt;Node12</title>
<path fill="none" stroke="midnightblue" d="M525.46,-52.49C510.46,-42.61 491.5,-30.12 478.64,-21.64"/>
<polygon fill="midnightblue" stroke="midnightblue" points="523.92,-55.67 534.19,-58.25 527.77,-49.82 523.92,-55.67"/>
</g>
<!-- Node13&#45;&gt;Node4 -->
<g id="edge19" class="edge">
<title>Node13&#45;&gt;Node4</title>
<path fill="none" stroke="midnightblue" d="M432.95,-55.72C470.65,-45.42 523.7,-30.93 558.22,-21.5"/>
<polygon fill="midnightblue" stroke="midnightblue" points="431.96,-52.36 423.24,-58.37 433.81,-59.11 431.96,-52.36"/>
</g>
<!-- Node13&#45;&gt;Node5 -->
<g id="edge20" class="edge">
<title>Node13&#45;&gt;Node5</title>
<path fill="none" stroke="midnightblue" d="M372.38,-50.5C363.87,-40.98 353.68,-29.56 346.61,-21.64"/>
<polygon fill="midnightblue" stroke="midnightblue" points="370.02,-53.12 379.29,-58.25 375.24,-48.46 370.02,-53.12"/>
</g>
<!-- Node13&#45;&gt;Node8 -->
<g id="edge18" class="edge">
<title>Node13&#45;&gt;Node8</title>
<path fill="none" stroke="midnightblue" d="M453.03,-56.71C505.43,-47.56 581.01,-34.21 647,-22 649.89,-21.46 652.87,-20.91 655.88,-20.34"/>
<polygon fill="midnightblue" stroke="midnightblue" points="452.11,-53.32 442.86,-58.49 453.31,-60.22 452.11,-53.32"/>
</g>
<!-- Node14 -->
<g id="node14" class="node">
<title>Node14</title>
<g id="a_node14"><a xlink:href="StealCardEvent_8cpp.html" target="_top" xlink:title=" ">
<polygon fill="none" stroke="black" points="134.5,-0.5 134.5,-21.5 277.5,-21.5 277.5,-0.5 134.5,-0.5"/>
<text text-anchor="middle" x="206" y="-7.9" font-family="Arial" font-size="12.00">src/StealCardEvent.cpp</text>
</a>
</g>
</g>
<!-- Node13&#45;&gt;Node14 -->
<g id="edge21" class="edge">
<title>Node13&#45;&gt;Node14</title>
<path fill="none" stroke="midnightblue" d="M346.8,-55.32C313.42,-45.05 267.13,-30.81 236.88,-21.5"/>
<polygon fill="midnightblue" stroke="midnightblue" points="346.13,-58.78 356.71,-58.37 348.18,-52.09 346.13,-58.78"/>
</g>
<!-- Node15&#45;&gt;Node4 -->
<g id="edge24" class="edge">
<title>Node15&#45;&gt;Node4</title>
<path fill="none" stroke="midnightblue" d="M671.48,-53.46C652.51,-43.44 627.83,-30.4 611.25,-21.64"/>
<polygon fill="midnightblue" stroke="midnightblue" points="670.06,-56.67 680.54,-58.25 673.33,-50.48 670.06,-56.67"/>
</g>
<!-- Node15&#45;&gt;Node5 -->
<g id="edge25" class="edge">
<title>Node15&#45;&gt;Node5</title>
<path fill="none" stroke="midnightblue" d="M626.23,-57.6C549.35,-46.54 433.26,-29.62 389,-22 386.15,-21.51 383.22,-20.99 380.27,-20.45"/>
<polygon fill="midnightblue" stroke="midnightblue" points="625.94,-61.09 636.33,-59.05 626.93,-54.16 625.94,-61.09"/>
</g>
<!-- Node15&#45;&gt;Node8 -->
<g id="edge23" class="edge">
<title>Node15&#45;&gt;Node8</title>
<path fill="none" stroke="midnightblue" d="M699,-48.16C699,-39.16 699,-28.92 699,-21.64"/>
<polygon fill="midnightblue" stroke="midnightblue" points="695.5,-48.25 699,-58.25 702.5,-48.25 695.5,-48.25"/>
</g>
<!-- Node16 -->
<g id="node16" class="node">
<title>Node16</title>
<g id="a_node16"><a xlink:href="TradeEvent_8cpp.html" target="_top" xlink:title=" ">
<polygon fill="none" stroke="black" points="760.5,-0.5 760.5,-21.5 879.5,-21.5 879.5,-0.5 760.5,-0.5"/>
<text text-anchor="middle" x="820" y="-7.9" font-family="Arial" font-size="12.00">src/TradeEvent.cpp</text>
</a>
</g>
</g>
<!-- Node15&#45;&gt;Node16 -->
<g id="edge26" class="edge">
<title>Node15&#45;&gt;Node16</title>
<path fill="none" stroke="midnightblue" d="M729.01,-54.11C750.95,-43.96 780.14,-30.45 799.47,-21.5"/>
<polygon fill="midnightblue" stroke="midnightblue" points="727.41,-51 719.8,-58.37 730.35,-57.35 727.41,-51"/>
</g>
</g>
</svg>
