<?xml version="1.0" encoding="UTF-8" standalone="no"?>
<!DOCTYPE svg PUBLIC "-//W3C//DTD SVG 1.1//EN"
 "http://www.w3.org/Graphics/SVG/1.1/DTD/svg11.dtd">
<!-- Generated by graphviz version 2.43.0 (0)
 -->
<!-- Title: include/card.h Pages: 1 -->
<svg width="2368pt" height="204pt"
 viewBox="0.00 0.00 2368.00 204.00" xmlns="http://www.w3.org/2000/svg" xmlns:xlink="http://www.w3.org/1999/xlink">
<g id="graph0" class="graph" transform="scale(1 1) rotate(0) translate(4 200)">
<title>include/card.h</title>
<!-- Node1 -->
<g id="node1" class="node">
<title>Node1</title>
<g id="a_node1"><a xlink:title=" ">
<polygon fill="#bfbfbf" stroke="black" points="1159,-174.5 1159,-195.5 1251,-195.5 1251,-174.5 1159,-174.5"/>
<text text-anchor="middle" x="1205" y="-181.9" font-family="Arial" font-size="12.00">include/card.h</text>
</a>
</g>
</g>
<!-- Node2 -->
<g id="node2" class="node">
<title>Node2</title>
<g id="a_node2"><a xlink:href="Card_8cpp.html" target="_top" xlink:title=" ">
<polygon fill="none" stroke="black" points="401,-116.5 401,-137.5 485,-137.5 485,-116.5 401,-116.5"/>
<text text-anchor="middle" x="443" y="-123.9" font-family="Arial" font-size="12.00">src/Card.cpp</text>
</a>
</g>
</g>
<!-- Node1&#45;&gt;Node2 -->
<g id="edge1" class="edge">
<title>Node1&#45;&gt;Node2</title>
<path fill="none" stroke="midnightblue" d="M1148.53,-182.82C1027.88,-179.75 736.26,-169.45 494,-138 491.14,-137.63 488.19,-137.19 485.23,-136.72"/>
<polygon fill="midnightblue" stroke="midnightblue" points="1148.55,-186.32 1158.63,-183.07 1148.72,-179.32 1148.55,-186.32"/>
</g>
<!-- Node3 -->
<g id="node3" class="node">
<title>Node3</title>
<g id="a_node3"><a xlink:href="bonuscard_8h.html" target="_top" xlink:title=" ">
<polygon fill="none" stroke="black" points="1070.5,-116.5 1070.5,-137.5 1195.5,-137.5 1195.5,-116.5 1070.5,-116.5"/>
<text text-anchor="middle" x="1133" y="-123.9" font-family="Arial" font-size="12.00">include/bonuscard.h</text>
</a>
</g>
</g>
<!-- Node1&#45;&gt;Node3 -->
<g id="edge2" class="edge">
<title>Node1&#45;&gt;Node3</title>
<path fill="none" stroke="midnightblue" d="M1184.34,-167.93C1171.75,-158.14 1156.09,-145.96 1145.4,-137.64"/>
<polygon fill="midnightblue" stroke="midnightblue" points="1182.42,-170.87 1192.46,-174.25 1186.71,-165.34 1182.42,-170.87"/>
</g>
<!-- Node14 -->
<g id="node14" class="node">
<title>Node14</title>
<g id="a_node14"><a xlink:href="constructioncard_8h.html" target="_top" xlink:title=" ">
<polygon fill="none" stroke="black" points="1606,-58.5 1606,-79.5 1762,-79.5 1762,-58.5 1606,-58.5"/>
<text text-anchor="middle" x="1684" y="-65.9" font-family="Arial" font-size="12.00">include/constructioncard.h</text>
</a>
</g>
</g>
<!-- Node1&#45;&gt;Node14 -->
<g id="edge19" class="edge">
<title>Node1&#45;&gt;Node14</title>
<path fill="none" stroke="midnightblue" d="M1261.22,-172.46C1304.24,-163.48 1364.99,-150.5 1418,-138 1500.81,-118.48 1597.46,-93.12 1648.39,-79.56"/>
<polygon fill="midnightblue" stroke="midnightblue" points="1260.31,-169.07 1251.23,-174.54 1261.74,-175.93 1260.31,-169.07"/>
</g>
<!-- Node19 -->
<g id="node19" class="node">
<title>Node19</title>
<g id="a_node19"><a xlink:href="deck_8h.html" target="_top" xlink:title=" ">
<polygon fill="none" stroke="black" points="1776,-116.5 1776,-137.5 1870,-137.5 1870,-116.5 1776,-116.5"/>
<text text-anchor="middle" x="1823" y="-123.9" font-family="Arial" font-size="12.00">include/deck.h</text>
</a>
</g>
</g>
<!-- Node1&#45;&gt;Node19 -->
<g id="edge27" class="edge">
<title>Node1&#45;&gt;Node19</title>
<path fill="none" stroke="midnightblue" d="M1261.34,-178.89C1382.1,-167.95 1664.01,-142.41 1775.96,-132.26"/>
<polygon fill="midnightblue" stroke="midnightblue" points="1260.84,-175.43 1251.2,-179.81 1261.47,-182.4 1260.84,-175.43"/>
</g>
<!-- Node26 -->
<g id="node26" class="node">
<title>Node26</title>
<g id="a_node26"><a xlink:href="eventcard_8h.html" target="_top" xlink:title=" ">
<polygon fill="none" stroke="black" points="502.5,-116.5 502.5,-137.5 623.5,-137.5 623.5,-116.5 502.5,-116.5"/>
<text text-anchor="middle" x="563" y="-123.9" font-family="Arial" font-size="12.00">include/eventcard.h</text>
</a>
</g>
</g>
<!-- Node1&#45;&gt;Node26 -->
<g id="edge47" class="edge">
<title>Node1&#45;&gt;Node26</title>
<path fill="none" stroke="midnightblue" d="M1148.74,-179.09C1028.62,-168.62 747.94,-144.13 623.85,-133.31"/>
<polygon fill="midnightblue" stroke="midnightblue" points="1148.56,-182.59 1158.83,-179.97 1149.17,-175.62 1148.56,-182.59"/>
</g>
<!-- Node35 -->
<g id="node35" class="node">
<title>Node35</title>
<g id="a_node35"><a xlink:href="playerbase_8h.html" target="_top" xlink:title=" ">
<polygon fill="none" stroke="black" points="1281,-116.5 1281,-137.5 1409,-137.5 1409,-116.5 1281,-116.5"/>
<text text-anchor="middle" x="1345" y="-123.9" font-family="Arial" font-size="12.00">include/playerbase.h</text>
</a>
</g>
</g>
<!-- Node1&#45;&gt;Node35 -->
<g id="edge65" class="edge">
<title>Node1&#45;&gt;Node35</title>
<path fill="none" stroke="midnightblue" d="M1238.36,-170.65C1263.9,-160.44 1298.48,-146.61 1321.25,-137.5"/>
<polygon fill="midnightblue" stroke="midnightblue" points="1237.05,-167.41 1229.07,-174.37 1239.65,-173.91 1237.05,-167.41"/>
</g>
<!-- Node4 -->
<g id="node4" class="node">
<title>Node4</title>
<g id="a_node4"><a xlink:href="BonusCard_8cpp.html" target="_top" xlink:title=" ">
<polygon fill="none" stroke="black" points="736.5,-58.5 736.5,-79.5 855.5,-79.5 855.5,-58.5 736.5,-58.5"/>
<text text-anchor="middle" x="796" y="-65.9" font-family="Arial" font-size="12.00">src/BonusCard.cpp</text>
</a>
</g>
</g>
<!-- Node3&#45;&gt;Node4 -->
<g id="edge3" class="edge">
<title>Node3&#45;&gt;Node4</title>
<path fill="none" stroke="midnightblue" d="M1065.35,-114.76C1003.16,-104.42 911.99,-89.27 853.31,-79.52"/>
<polygon fill="midnightblue" stroke="midnightblue" points="1065.01,-118.25 1075.45,-116.44 1066.16,-111.34 1065.01,-118.25"/>
</g>
<!-- Node5 -->
<g id="node5" class="node">
<title>Node5</title>
<g id="a_node5"><a xlink:href="stealcardevent_8h.html" target="_top" xlink:title=" ">
<polygon fill="none" stroke="black" points="874,-58.5 874,-79.5 1020,-79.5 1020,-58.5 874,-58.5"/>
<text text-anchor="middle" x="947" y="-65.9" font-family="Arial" font-size="12.00">include/stealcardevent.h</text>
</a>
</g>
</g>
<!-- Node3&#45;&gt;Node5 -->
<g id="edge4" class="edge">
<title>Node3&#45;&gt;Node5</title>
<path fill="none" stroke="midnightblue" d="M1091.34,-113.46C1057.19,-103.18 1009.61,-88.85 978.56,-79.5"/>
<polygon fill="midnightblue" stroke="midnightblue" points="1090.44,-116.84 1101.03,-116.37 1092.46,-110.14 1090.44,-116.84"/>
</g>
<!-- Node10 -->
<g id="node10" class="node">
<title>Node10</title>
<g id="a_node10"><a xlink:href="tradeevent_8h.html" target="_top" xlink:title=" ">
<polygon fill="none" stroke="black" points="1208.5,-58.5 1208.5,-79.5 1333.5,-79.5 1333.5,-58.5 1208.5,-58.5"/>
<text text-anchor="middle" x="1271" y="-65.9" font-family="Arial" font-size="12.00">include/tradeevent.h</text>
</a>
</g>
</g>
<!-- Node3&#45;&gt;Node10 -->
<g id="edge9" class="edge">
<title>Node3&#45;&gt;Node10</title>
<path fill="none" stroke="midnightblue" d="M1166.22,-112.52C1191.35,-102.32 1225.24,-88.57 1247.59,-79.5"/>
<polygon fill="midnightblue" stroke="midnightblue" points="1164.67,-109.37 1156.72,-116.37 1167.31,-115.86 1164.67,-109.37"/>
</g>
<!-- Node12 -->
<g id="node12" class="node">
<title>Node12</title>
<g id="a_node12"><a xlink:href="varevent_8h.html" target="_top" xlink:title=" ">
<polygon fill="none" stroke="black" points="1076,-58.5 1076,-79.5 1190,-79.5 1190,-58.5 1076,-58.5"/>
<text text-anchor="middle" x="1133" y="-65.9" font-family="Arial" font-size="12.00">include/varevent.h</text>
</a>
</g>
</g>
<!-- Node3&#45;&gt;Node12 -->
<g id="edge14" class="edge">
<title>Node3&#45;&gt;Node12</title>
<path fill="none" stroke="midnightblue" d="M1133,-106.16C1133,-97.16 1133,-86.92 1133,-79.64"/>
<polygon fill="midnightblue" stroke="midnightblue" points="1129.5,-106.25 1133,-116.25 1136.5,-106.25 1129.5,-106.25"/>
</g>
<!-- Node6 -->
<g id="node6" class="node">
<title>Node6</title>
<g id="a_node6"><a xlink:href="Deck_8cpp.html" target="_top" xlink:title=" ">
<polygon fill="none" stroke="black" points="875,-0.5 875,-21.5 961,-21.5 961,-0.5 875,-0.5"/>
<text text-anchor="middle" x="918" y="-7.9" font-family="Arial" font-size="12.00">src/Deck.cpp</text>
</a>
</g>
</g>
<!-- Node5&#45;&gt;Node6 -->
<g id="edge5" class="edge">
<title>Node5&#45;&gt;Node6</title>
<path fill="none" stroke="midnightblue" d="M937.34,-49.34C932.53,-40.06 926.93,-29.24 922.99,-21.64"/>
<polygon fill="midnightblue" stroke="midnightblue" points="934.24,-50.98 941.95,-58.25 940.46,-47.76 934.24,-50.98"/>
</g>
<!-- Node7 -->
<g id="node7" class="node">
<title>Node7</title>
<g id="a_node7"><a xlink:href="Game_8cpp.html" target="_top" xlink:title=" ">
<polygon fill="none" stroke="black" points="979,-0.5 979,-21.5 1069,-21.5 1069,-0.5 979,-0.5"/>
<text text-anchor="middle" x="1024" y="-7.9" font-family="Arial" font-size="12.00">src/Game.cpp</text>
</a>
</g>
</g>
<!-- Node5&#45;&gt;Node7 -->
<g id="edge6" class="edge">
<title>Node5&#45;&gt;Node7</title>
<path fill="none" stroke="midnightblue" d="M968.71,-52.21C982.24,-42.37 999.2,-30.04 1010.74,-21.64"/>
<polygon fill="midnightblue" stroke="midnightblue" points="966.44,-49.53 960.41,-58.25 970.56,-55.19 966.44,-49.53"/>
</g>
<!-- Node8 -->
<g id="node8" class="node">
<title>Node8</title>
<g id="a_node8"><a xlink:href="main_8cpp.html" target="_top" xlink:title=" ">
<polygon fill="none" stroke="black" points="1211,-0.5 1211,-21.5 1295,-21.5 1295,-0.5 1211,-0.5"/>
<text text-anchor="middle" x="1253" y="-7.9" font-family="Arial" font-size="12.00">src/main.cpp</text>
</a>
</g>
</g>
<!-- Node5&#45;&gt;Node8 -->
<g id="edge7" class="edge">
<title>Node5&#45;&gt;Node8</title>
<path fill="none" stroke="midnightblue" d="M1011.27,-56.68C1062.86,-47.53 1137.14,-34.21 1202,-22 1204.93,-21.45 1207.95,-20.87 1210.98,-20.29"/>
<polygon fill="midnightblue" stroke="midnightblue" points="1010.5,-53.27 1001.27,-58.46 1011.72,-60.16 1010.5,-53.27"/>
</g>
<!-- Node9 -->
<g id="node9" class="node">
<title>Node9</title>
<g id="a_node9"><a xlink:href="StealCardEvent_8cpp.html" target="_top" xlink:title=" ">
<polygon fill="none" stroke="black" points="713.5,-0.5 713.5,-21.5 856.5,-21.5 856.5,-0.5 713.5,-0.5"/>
<text text-anchor="middle" x="785" y="-7.9" font-family="Arial" font-size="12.00">src/StealCardEvent.cpp</text>
</a>
</g>
</g>
<!-- Node5&#45;&gt;Node9 -->
<g id="edge8" class="edge">
<title>Node5&#45;&gt;Node9</title>
<path fill="none" stroke="midnightblue" d="M909.56,-55.06C879.91,-44.81 839.18,-30.73 812.49,-21.5"/>
<polygon fill="midnightblue" stroke="midnightblue" points="908.56,-58.41 919.15,-58.37 910.84,-51.8 908.56,-58.41"/>
</g>
<!-- Node10&#45;&gt;Node6 -->
<g id="edge10" class="edge">
<title>Node10&#45;&gt;Node6</title>
<path fill="none" stroke="midnightblue" d="M1198.41,-57.7C1137.37,-48.85 1047.85,-35.43 970,-22 967.1,-21.5 964.11,-20.97 961.11,-20.42"/>
<polygon fill="midnightblue" stroke="midnightblue" points="1197.94,-61.17 1208.34,-59.14 1198.94,-54.24 1197.94,-61.17"/>
</g>
<!-- Node10&#45;&gt;Node7 -->
<g id="edge11" class="edge">
<title>Node10&#45;&gt;Node7</title>
<path fill="none" stroke="midnightblue" d="M1218.85,-56.18C1173.36,-45.86 1108.22,-31.09 1066.01,-21.52"/>
<polygon fill="midnightblue" stroke="midnightblue" points="1218.29,-59.64 1228.82,-58.44 1219.84,-52.81 1218.29,-59.64"/>
</g>
<!-- Node10&#45;&gt;Node8 -->
<g id="edge12" class="edge">
<title>Node10&#45;&gt;Node8</title>
<path fill="none" stroke="midnightblue" d="M1264.72,-48.45C1261.8,-39.38 1258.46,-29 1256.1,-21.64"/>
<polygon fill="midnightblue" stroke="midnightblue" points="1261.47,-49.8 1267.86,-58.25 1268.14,-47.65 1261.47,-49.8"/>
</g>
<!-- Node11 -->
<g id="node11" class="node">
<title>Node11</title>
<g id="a_node11"><a xlink:href="TradeEvent_8cpp.html" target="_top" xlink:title=" ">
<polygon fill="none" stroke="black" points="1313.5,-0.5 1313.5,-21.5 1432.5,-21.5 1432.5,-0.5 1313.5,-0.5"/>
<text text-anchor="middle" x="1373" y="-7.9" font-family="Arial" font-size="12.00">src/TradeEvent.cpp</text>
</a>
</g>
</g>
<!-- Node10&#45;&gt;Node11 -->
<g id="edge13" class="edge">
<title>Node10&#45;&gt;Node11</title>
<path fill="none" stroke="midnightblue" d="M1297.73,-53.32C1315.95,-43.32 1339.56,-30.36 1355.44,-21.64"/>
<polygon fill="midnightblue" stroke="midnightblue" points="1295.85,-50.36 1288.77,-58.25 1299.22,-56.5 1295.85,-50.36"/>
</g>
<!-- Node12&#45;&gt;Node6 -->
<g id="edge15" class="edge">
<title>Node12&#45;&gt;Node6</title>
<path fill="none" stroke="midnightblue" d="M1086.36,-55.85C1046.79,-45.55 990.83,-30.97 954.48,-21.5"/>
<polygon fill="midnightblue" stroke="midnightblue" points="1085.48,-59.24 1096.04,-58.37 1087.25,-52.47 1085.48,-59.24"/>
</g>
<!-- Node12&#45;&gt;Node7 -->
<g id="edge16" class="edge">
<title>Node12&#45;&gt;Node7</title>
<path fill="none" stroke="midnightblue" d="M1104.97,-53.6C1085.43,-43.56 1059.89,-30.44 1042.77,-21.64"/>
<polygon fill="midnightblue" stroke="midnightblue" points="1103.52,-56.79 1114.01,-58.25 1106.72,-50.56 1103.52,-56.79"/>
</g>
<!-- Node12&#45;&gt;Node8 -->
<g id="edge17" class="edge">
<title>Node12&#45;&gt;Node8</title>
<path fill="none" stroke="midnightblue" d="M1162.76,-54.11C1184.52,-43.96 1213.47,-30.45 1232.64,-21.5"/>
<polygon fill="midnightblue" stroke="midnightblue" points="1161.21,-50.97 1153.63,-58.37 1164.17,-57.32 1161.21,-50.97"/>
</g>
<!-- Node13 -->
<g id="node13" class="node">
<title>Node13</title>
<g id="a_node13"><a xlink:href="VarEvent_8cpp.html" target="_top" xlink:title=" ">
<polygon fill="none" stroke="black" points="1087,-0.5 1087,-21.5 1193,-21.5 1193,-0.5 1087,-0.5"/>
<text text-anchor="middle" x="1140" y="-7.9" font-family="Arial" font-size="12.00">src/VarEvent.cpp</text>
</a>
</g>
</g>
<!-- Node12&#45;&gt;Node13 -->
<g id="edge18" class="edge">
<title>Node12&#45;&gt;Node13</title>
<path fill="none" stroke="midnightblue" d="M1135.48,-48.16C1136.61,-39.16 1137.89,-28.92 1138.79,-21.64"/>
<polygon fill="midnightblue" stroke="midnightblue" points="1131.99,-47.89 1134.22,-58.25 1138.93,-48.76 1131.99,-47.89"/>
</g>
<!-- Node14&#45;&gt;Node6 -->
<g id="edge21" class="edge">
<title>Node14&#45;&gt;Node6</title>
<path fill="none" stroke="midnightblue" d="M1595.77,-57.94C1317.19,-34.57 1243.75,-56.03 970,-22 967.08,-21.64 964.08,-21.21 961.06,-20.74"/>
<polygon fill="midnightblue" stroke="midnightblue" points="1595.51,-61.43 1605.77,-58.79 1596.1,-54.46 1595.51,-61.43"/>
</g>
<!-- Node14&#45;&gt;Node7 -->
<g id="edge22" class="edge">
<title>Node14&#45;&gt;Node7</title>
<path fill="none" stroke="midnightblue" d="M1595.72,-57.92C1365.04,-37.19 1304.13,-50.69 1078,-22 1075.07,-21.63 1072.05,-21.2 1069.02,-20.73"/>
<polygon fill="midnightblue" stroke="midnightblue" points="1595.49,-61.42 1605.76,-58.84 1596.12,-54.45 1595.49,-61.42"/>
</g>
<!-- Node14&#45;&gt;Node8 -->
<g id="edge23" class="edge">
<title>Node14&#45;&gt;Node8</title>
<path fill="none" stroke="midnightblue" d="M1595.75,-57.62C1492.79,-45.45 1333,-26.39 1305,-22 1301.82,-21.5 1298.54,-20.95 1295.24,-20.38"/>
<polygon fill="midnightblue" stroke="midnightblue" points="1595.5,-61.11 1605.84,-58.81 1596.32,-54.16 1595.5,-61.11"/>
</g>
<!-- Node15 -->
<g id="node15" class="node">
<title>Node15</title>
<g id="a_node15"><a xlink:href="ConstructionCard_8cpp.html" target="_top" xlink:title=" ">
<polygon fill="none" stroke="black" points="1451,-0.5 1451,-21.5 1603,-21.5 1603,-0.5 1451,-0.5"/>
<text text-anchor="middle" x="1527" y="-7.9" font-family="Arial" font-size="12.00">src/ConstructionCard.cpp</text>
</a>
</g>
</g>
<!-- Node14&#45;&gt;Node15 -->
<g id="edge20" class="edge">
<title>Node14&#45;&gt;Node15</title>
<path fill="none" stroke="midnightblue" d="M1647.34,-54.92C1618.64,-44.69 1579.4,-30.69 1553.64,-21.5"/>
<polygon fill="midnightblue" stroke="midnightblue" points="1646.42,-58.31 1657.01,-58.37 1648.77,-51.72 1646.42,-58.31"/>
</g>
<!-- Node16 -->
<g id="node16" class="node">
<title>Node16</title>
<g id="a_node16"><a xlink:href="testai_8cpp.html" target="_top" xlink:title=" ">
<polygon fill="none" stroke="black" points="1765.5,-0.5 1765.5,-21.5 1860.5,-21.5 1860.5,-0.5 1765.5,-0.5"/>
<text text-anchor="middle" x="1813" y="-7.9" font-family="Arial" font-size="12.00">tests/testai.cpp</text>
</a>
</g>
</g>
<!-- Node14&#45;&gt;Node16 -->
<g id="edge24" class="edge">
<title>Node14&#45;&gt;Node16</title>
<path fill="none" stroke="midnightblue" d="M1715.37,-54.38C1738.83,-44.2 1770.32,-30.53 1791.11,-21.5"/>
<polygon fill="midnightblue" stroke="midnightblue" points="1713.96,-51.18 1706.18,-58.37 1716.74,-57.6 1713.96,-51.18"/>
</g>
<!-- Node17 -->
<g id="node17" class="node">
<title>Node17</title>
<g id="a_node17"><a xlink:href="testaiboard_8cpp.html" target="_top" xlink:title=" ">
<polygon fill="none" stroke="black" points="1621,-0.5 1621,-21.5 1747,-21.5 1747,-0.5 1621,-0.5"/>
<text text-anchor="middle" x="1684" y="-7.9" font-family="Arial" font-size="12.00">tests/testaiboard.cpp</text>
</a>
</g>
</g>
<!-- Node14&#45;&gt;Node17 -->
<g id="edge25" class="edge">
<title>Node14&#45;&gt;Node17</title>
<path fill="none" stroke="midnightblue" d="M1684,-48.16C1684,-39.16 1684,-28.92 1684,-21.64"/>
<polygon fill="midnightblue" stroke="midnightblue" points="1680.5,-48.25 1684,-58.25 1687.5,-48.25 1680.5,-48.25"/>
</g>
<!-- Node18 -->
<g id="node18" class="node">
<title>Node18</title>
<g id="a_node18"><a xlink:href="testplayerboard_8cpp.html" target="_top" xlink:title=" ">
<polygon fill="none" stroke="black" points="2100.5,-0.5 2100.5,-21.5 2249.5,-21.5 2249.5,-0.5 2100.5,-0.5"/>
<text text-anchor="middle" x="2175" y="-7.9" font-family="Arial" font-size="12.00">tests/testplayerboard.cpp</text>
</a>
</g>
</g>
<!-- Node14&#45;&gt;Node18 -->
<g id="edge26" class="edge">
<title>Node14&#45;&gt;Node18</title>
<path fill="none" stroke="midnightblue" d="M1772.12,-58.19C1854.57,-48.98 1981.15,-34.75 2091,-22 2094.06,-21.64 2097.19,-21.28 2100.35,-20.91"/>
<polygon fill="midnightblue" stroke="midnightblue" points="1771.59,-54.73 1762.04,-59.32 1772.37,-61.69 1771.59,-54.73"/>
</g>
<!-- Node19&#45;&gt;Node6 -->
<g id="edge28" class="edge">
<title>Node19&#45;&gt;Node6</title>
<path fill="none" stroke="midnightblue" d="M1765.56,-124.03C1600.62,-118.16 1133.18,-99.95 1067,-80 1048.32,-74.37 1046.5,-66.64 1029,-58 1000.57,-43.96 966.77,-30.37 944,-21.65"/>
<polygon fill="midnightblue" stroke="midnightblue" points="1765.86,-127.54 1775.97,-124.4 1766.1,-120.55 1765.86,-127.54"/>
</g>
<!-- Node19&#45;&gt;Node16 -->
<g id="edge44" class="edge">
<title>Node19&#45;&gt;Node16</title>
<path fill="none" stroke="midnightblue" d="M1861.26,-112.72C1889.09,-100.78 1919.54,-81.53 1905,-58 1893.64,-39.62 1872.47,-28.34 1853.29,-21.55"/>
<polygon fill="midnightblue" stroke="midnightblue" points="1859.94,-109.48 1852,-116.48 1862.58,-115.96 1859.94,-109.48"/>
</g>
<!-- Node19&#45;&gt;Node17 -->
<g id="edge45" class="edge">
<title>Node19&#45;&gt;Node17</title>
<path fill="none" stroke="midnightblue" d="M1811.94,-107.39C1802.48,-92.62 1787.75,-72.17 1771,-58 1752.22,-42.11 1727.04,-29.54 1708.6,-21.59"/>
<polygon fill="midnightblue" stroke="midnightblue" points="1809.13,-109.49 1817.37,-116.15 1815.08,-105.8 1809.13,-109.49"/>
</g>
<!-- Node19&#45;&gt;Node18 -->
<g id="edge46" class="edge">
<title>Node19&#45;&gt;Node18</title>
<path fill="none" stroke="midnightblue" d="M1880.36,-125.95C1938.68,-123.79 2030.27,-114.48 2101,-80 2129.86,-65.93 2155.46,-36.96 2167.58,-21.77"/>
<polygon fill="midnightblue" stroke="midnightblue" points="1880.11,-122.46 1870.23,-126.26 1880.33,-129.45 1880.11,-122.46"/>
</g>
<!-- Node20 -->
<g id="node20" class="node">
<title>Node20</title>
<g id="a_node20"><a xlink:href="ai_8h.html" target="_top" xlink:title=" ">
<polygon fill="none" stroke="black" points="1818,-58.5 1818,-79.5 1896,-79.5 1896,-58.5 1818,-58.5"/>
<text text-anchor="middle" x="1857" y="-65.9" font-family="Arial" font-size="12.00">include/ai.h</text>
</a>
</g>
</g>
<!-- Node19&#45;&gt;Node20 -->
<g id="edge29" class="edge">
<title>Node19&#45;&gt;Node20</title>
<path fill="none" stroke="midnightblue" d="M1834.15,-107.63C1839.82,-98.29 1846.48,-87.32 1851.15,-79.64"/>
<polygon fill="midnightblue" stroke="midnightblue" points="1831.12,-105.88 1828.92,-116.25 1837.1,-109.51 1831.12,-105.88"/>
</g>
<!-- Node23 -->
<g id="node23" class="node">
<title>Node23</title>
<g id="a_node23"><a xlink:href="game_8h.html" target="_top" xlink:title=" ">
<polygon fill="none" stroke="black" points="1490,-58.5 1490,-79.5 1588,-79.5 1588,-58.5 1490,-58.5"/>
<text text-anchor="middle" x="1539" y="-65.9" font-family="Arial" font-size="12.00">include/game.h</text>
</a>
</g>
</g>
<!-- Node19&#45;&gt;Node23 -->
<g id="edge35" class="edge">
<title>Node19&#45;&gt;Node23</title>
<path fill="none" stroke="midnightblue" d="M1765.97,-114.75C1713.56,-104.42 1636.72,-89.27 1587.28,-79.52"/>
<polygon fill="midnightblue" stroke="midnightblue" points="1765.3,-118.19 1775.78,-116.69 1766.65,-111.32 1765.3,-118.19"/>
</g>
<!-- Node24 -->
<g id="node24" class="node">
<title>Node24</title>
<g id="a_node24"><a xlink:href="player_8h.html" target="_top" xlink:title=" ">
<polygon fill="none" stroke="black" points="1990.5,-58.5 1990.5,-79.5 2091.5,-79.5 2091.5,-58.5 1990.5,-58.5"/>
<text text-anchor="middle" x="2041" y="-65.9" font-family="Arial" font-size="12.00">include/player.h</text>
</a>
</g>
</g>
<!-- Node19&#45;&gt;Node24 -->
<g id="edge39" class="edge">
<title>Node19&#45;&gt;Node24</title>
<path fill="none" stroke="midnightblue" d="M1870.29,-113.85C1910.41,-103.55 1967.15,-88.97 2004.01,-79.5"/>
<polygon fill="midnightblue" stroke="midnightblue" points="1869.29,-110.5 1860.48,-116.37 1871.03,-117.28 1869.29,-110.5"/>
</g>
<!-- Node20&#45;&gt;Node8 -->
<g id="edge31" class="edge">
<title>Node20&#45;&gt;Node8</title>
<path fill="none" stroke="midnightblue" d="M1807.42,-61.9C1795.5,-60.53 1782.8,-59.14 1771,-58 1564.24,-38 1510.88,-49.66 1305,-22 1301.81,-21.57 1298.52,-21.07 1295.22,-20.53"/>
<polygon fill="midnightblue" stroke="midnightblue" points="1807.31,-65.41 1817.65,-63.1 1808.12,-58.46 1807.31,-65.41"/>
</g>
<!-- Node20&#45;&gt;Node16 -->
<g id="edge32" class="edge">
<title>Node20&#45;&gt;Node16</title>
<path fill="none" stroke="midnightblue" d="M1843.02,-50.21C1835.59,-40.75 1826.73,-29.48 1820.58,-21.64"/>
<polygon fill="midnightblue" stroke="midnightblue" points="1840.41,-52.54 1849.34,-58.25 1845.91,-48.22 1840.41,-52.54"/>
</g>
<!-- Node20&#45;&gt;Node17 -->
<g id="edge33" class="edge">
<title>Node20&#45;&gt;Node17</title>
<path fill="none" stroke="midnightblue" d="M1817.43,-55.19C1785.73,-44.93 1741.98,-30.77 1713.35,-21.5"/>
<polygon fill="midnightblue" stroke="midnightblue" points="1816.67,-58.62 1827.26,-58.37 1818.82,-51.96 1816.67,-58.62"/>
</g>
<!-- Node21 -->
<g id="node21" class="node">
<title>Node21</title>
<g id="a_node21"><a xlink:href="AI_8cpp.html" target="_top" xlink:title=" ">
<polygon fill="none" stroke="black" points="1878.5,-0.5 1878.5,-21.5 1947.5,-21.5 1947.5,-0.5 1878.5,-0.5"/>
<text text-anchor="middle" x="1913" y="-7.9" font-family="Arial" font-size="12.00">src/AI.cpp</text>
</a>
</g>
</g>
<!-- Node20&#45;&gt;Node21 -->
<g id="edge30" class="edge">
<title>Node20&#45;&gt;Node21</title>
<path fill="none" stroke="midnightblue" d="M1873.92,-51.08C1883.56,-41.44 1895.28,-29.72 1903.36,-21.64"/>
<polygon fill="midnightblue" stroke="midnightblue" points="1871.35,-48.7 1866.75,-58.25 1876.3,-53.65 1871.35,-48.7"/>
</g>
<!-- Node22 -->
<g id="node22" class="node">
<title>Node22</title>
<g id="a_node22"><a xlink:href="testgame_8cpp.html" target="_top" xlink:title=" ">
<polygon fill="none" stroke="black" points="1966,-0.5 1966,-21.5 2082,-21.5 2082,-0.5 1966,-0.5"/>
<text text-anchor="middle" x="2024" y="-7.9" font-family="Arial" font-size="12.00">tests/testgame.cpp</text>
</a>
</g>
</g>
<!-- Node20&#45;&gt;Node22 -->
<g id="edge34" class="edge">
<title>Node20&#45;&gt;Node22</title>
<path fill="none" stroke="midnightblue" d="M1895.2,-55.19C1925.8,-44.93 1968.03,-30.77 1995.67,-21.5"/>
<polygon fill="midnightblue" stroke="midnightblue" points="1894.08,-51.88 1885.71,-58.37 1896.3,-58.51 1894.08,-51.88"/>
</g>
<!-- Node23&#45;&gt;Node7 -->
<g id="edge36" class="edge">
<title>Node23&#45;&gt;Node7</title>
<path fill="none" stroke="midnightblue" d="M1479.98,-57.97C1300.97,-35.11 1252.94,-45.96 1078,-22 1075.07,-21.6 1072.06,-21.15 1069.03,-20.67"/>
<polygon fill="midnightblue" stroke="midnightblue" points="1479.63,-61.45 1490,-59.26 1480.53,-54.51 1479.63,-61.45"/>
</g>
<!-- Node23&#45;&gt;Node8 -->
<g id="edge37" class="edge">
<title>Node23&#45;&gt;Node8</title>
<path fill="none" stroke="midnightblue" d="M1480.18,-56.48C1425.07,-45.69 1344.04,-29.83 1295.12,-20.25"/>
<polygon fill="midnightblue" stroke="midnightblue" points="1479.67,-59.95 1490.16,-58.44 1481.02,-53.08 1479.67,-59.95"/>
</g>
<!-- Node23&#45;&gt;Node22 -->
<g id="edge38" class="edge">
<title>Node23&#45;&gt;Node22</title>
<path fill="none" stroke="midnightblue" d="M1598.21,-57.92C1758.07,-36.54 1800.71,-41.47 1957,-22 1959.92,-21.64 1962.9,-21.25 1965.92,-20.84"/>
<polygon fill="midnightblue" stroke="midnightblue" points="1597.45,-54.49 1588.01,-59.3 1598.39,-61.43 1597.45,-54.49"/>
</g>
<!-- Node24&#45;&gt;Node8 -->
<g id="edge40" class="edge">
<title>Node24&#45;&gt;Node8</title>
<path fill="none" stroke="midnightblue" d="M1980.15,-63.35C1956.67,-61.6 1929.59,-59.64 1905,-58 1638.45,-40.2 1570.06,-55.3 1305,-22 1301.81,-21.6 1298.52,-21.12 1295.21,-20.59"/>
<polygon fill="midnightblue" stroke="midnightblue" points="1980.08,-66.85 1990.31,-64.11 1980.6,-59.87 1980.08,-66.85"/>
</g>
<!-- Node24&#45;&gt;Node18 -->
<g id="edge43" class="edge">
<title>Node24&#45;&gt;Node18</title>
<path fill="none" stroke="midnightblue" d="M2073.58,-54.38C2097.95,-44.2 2130.66,-30.53 2152.27,-21.5"/>
<polygon fill="midnightblue" stroke="midnightblue" points="2071.91,-51.29 2064.04,-58.37 2074.61,-57.75 2071.91,-51.29"/>
</g>
<!-- Node24&#45;&gt;Node22 -->
<g id="edge42" class="edge">
<title>Node24&#45;&gt;Node22</title>
<path fill="none" stroke="midnightblue" d="M2035.07,-48.45C2032.31,-39.38 2029.16,-29 2026.93,-21.64"/>
<polygon fill="midnightblue" stroke="midnightblue" points="2031.78,-49.69 2038.04,-58.25 2038.48,-47.66 2031.78,-49.69"/>
</g>
<!-- Node25 -->
<g id="node25" class="node">
<title>Node25</title>
<g id="a_node25"><a xlink:href="Player_8cpp.html" target="_top" xlink:title=" ">
<polygon fill="none" stroke="black" points="2268,-0.5 2268,-21.5 2360,-21.5 2360,-0.5 2268,-0.5"/>
<text text-anchor="middle" x="2314" y="-7.9" font-family="Arial" font-size="12.00">src/Player.cpp</text>
</a>
</g>
</g>
<!-- Node24&#45;&gt;Node25 -->
<g id="edge41" class="edge">
<title>Node24&#45;&gt;Node25</title>
<path fill="none" stroke="midnightblue" d="M2097.69,-56.37C2148,-46.05 2220.63,-31.15 2267.57,-21.52"/>
<polygon fill="midnightblue" stroke="midnightblue" points="2096.71,-53 2087.62,-58.44 2098.12,-59.86 2096.71,-53"/>
</g>
<!-- Node27 -->
<g id="node27" class="node">
<title>Node27</title>
<g id="a_node27"><a xlink:href="EventCard_8cpp.html" target="_top" xlink:title=" ">
<polygon fill="none" stroke="black" points="279.5,-58.5 279.5,-79.5 394.5,-79.5 394.5,-58.5 279.5,-58.5"/>
<text text-anchor="middle" x="337" y="-65.9" font-family="Arial" font-size="12.00">src/EventCard.cpp</text>
</a>
</g>
</g>
<!-- Node26&#45;&gt;Node27 -->
<g id="edge48" class="edge">
<title>Node26&#45;&gt;Node27</title>
<path fill="none" stroke="midnightblue" d="M514.5,-113.98C472.92,-103.68 413.81,-89.03 375.43,-79.52"/>
<polygon fill="midnightblue" stroke="midnightblue" points="513.86,-117.43 524.41,-116.44 515.54,-110.63 513.86,-117.43"/>
</g>
<!-- Node28 -->
<g id="node28" class="node">
<title>Node28</title>
<g id="a_node28"><a xlink:href="economicevent_8h.html" target="_top" xlink:title=" ">
<polygon fill="none" stroke="black" points="569.5,-58.5 569.5,-79.5 718.5,-79.5 718.5,-58.5 569.5,-58.5"/>
<text text-anchor="middle" x="644" y="-65.9" font-family="Arial" font-size="12.00">include/economicevent.h</text>
</a>
</g>
</g>
<!-- Node26&#45;&gt;Node28 -->
<g id="edge49" class="edge">
<title>Node26&#45;&gt;Node28</title>
<path fill="none" stroke="midnightblue" d="M585.43,-110.49C599.73,-100.61 617.79,-88.12 630.05,-79.64"/>
<polygon fill="midnightblue" stroke="midnightblue" points="583.34,-107.68 577.11,-116.25 587.33,-113.44 583.34,-107.68"/>
</g>
<!-- Node30 -->
<g id="node30" class="node">
<title>Node30</title>
<g id="a_node30"><a xlink:href="naturaldisaster_8h.html" target="_top" xlink:title=" ">
<polygon fill="none" stroke="black" points="115,-58.5 115,-79.5 261,-79.5 261,-58.5 115,-58.5"/>
<text text-anchor="middle" x="188" y="-65.9" font-family="Arial" font-size="12.00">include/naturaldisaster.h</text>
</a>
</g>
</g>
<!-- Node26&#45;&gt;Node30 -->
<g id="edge54" class="edge">
<title>Node26&#45;&gt;Node30</title>
<path fill="none" stroke="midnightblue" d="M492.38,-115.45C423.13,-105.11 318.49,-89.49 251.72,-79.51"/>
<polygon fill="midnightblue" stroke="midnightblue" points="491.93,-118.92 502.33,-116.94 492.96,-112 491.93,-118.92"/>
</g>
<!-- Node33 -->
<g id="node33" class="node">
<title>Node33</title>
<g id="a_node33"><a xlink:href="politicalevent_8h.html" target="_top" xlink:title=" ">
<polygon fill="none" stroke="black" points="412.5,-58.5 412.5,-79.5 551.5,-79.5 551.5,-58.5 412.5,-58.5"/>
<text text-anchor="middle" x="482" y="-65.9" font-family="Arial" font-size="12.00">include/politicalevent.h</text>
</a>
</g>
</g>
<!-- Node26&#45;&gt;Node33 -->
<g id="edge60" class="edge">
<title>Node26&#45;&gt;Node33</title>
<path fill="none" stroke="midnightblue" d="M540.57,-110.49C526.27,-100.61 508.21,-88.12 495.95,-79.64"/>
<polygon fill="midnightblue" stroke="midnightblue" points="538.67,-113.44 548.89,-116.25 542.66,-107.68 538.67,-113.44"/>
</g>
<!-- Node28&#45;&gt;Node6 -->
<g id="edge50" class="edge">
<title>Node28&#45;&gt;Node6</title>
<path fill="none" stroke="midnightblue" d="M700.79,-56.39C752.44,-45.84 827.57,-30.48 874.57,-20.88"/>
<polygon fill="midnightblue" stroke="midnightblue" points="699.89,-53.01 690.79,-58.44 701.29,-59.86 699.89,-53.01"/>
</g>
<!-- Node28&#45;&gt;Node7 -->
<g id="edge52" class="edge">
<title>Node28&#45;&gt;Node7</title>
<path fill="none" stroke="midnightblue" d="M727.86,-57.17C793.79,-48.42 887.9,-35.39 970,-22 972.92,-21.52 975.92,-21.02 978.94,-20.49"/>
<polygon fill="midnightblue" stroke="midnightblue" points="727.39,-53.71 717.94,-58.49 728.31,-60.65 727.39,-53.71"/>
</g>
<!-- Node28&#45;&gt;Node8 -->
<g id="edge53" class="edge">
<title>Node28&#45;&gt;Node8</title>
<path fill="none" stroke="midnightblue" d="M728.81,-57.97C940.01,-37.9 995.91,-49.93 1202,-22 1204.86,-21.61 1207.8,-21.17 1210.76,-20.68"/>
<polygon fill="midnightblue" stroke="midnightblue" points="728.26,-54.5 718.64,-58.95 728.93,-61.47 728.26,-54.5"/>
</g>
<!-- Node29 -->
<g id="node29" class="node">
<title>Node29</title>
<g id="a_node29"><a xlink:href="EconomicEvent_8cpp.html" target="_top" xlink:title=" ">
<polygon fill="none" stroke="black" points="553,-0.5 553,-21.5 695,-21.5 695,-0.5 553,-0.5"/>
<text text-anchor="middle" x="624" y="-7.9" font-family="Arial" font-size="12.00">src/EconomicEvent.cpp</text>
</a>
</g>
</g>
<!-- Node28&#45;&gt;Node29 -->
<g id="edge51" class="edge">
<title>Node28&#45;&gt;Node29</title>
<path fill="none" stroke="midnightblue" d="M637.12,-48.75C633.86,-39.61 630.1,-29.08 627.44,-21.64"/>
<polygon fill="midnightblue" stroke="midnightblue" points="633.86,-50.01 640.52,-58.25 640.45,-47.65 633.86,-50.01"/>
</g>
<!-- Node30&#45;&gt;Node6 -->
<g id="edge55" class="edge">
<title>Node30&#45;&gt;Node6</title>
<path fill="none" stroke="midnightblue" d="M271.59,-57.91C536.05,-34.46 606.05,-54.71 866,-22 868.92,-21.63 871.92,-21.2 874.94,-20.73"/>
<polygon fill="midnightblue" stroke="midnightblue" points="270.94,-54.45 261.29,-58.84 271.57,-61.43 270.94,-54.45"/>
</g>
<!-- Node30&#45;&gt;Node7 -->
<g id="edge56" class="edge">
<title>Node30&#45;&gt;Node7</title>
<path fill="none" stroke="midnightblue" d="M271.49,-57.93C582.11,-31.71 663.94,-58.05 970,-22 972.94,-21.65 975.95,-21.25 978.99,-20.79"/>
<polygon fill="midnightblue" stroke="midnightblue" points="270.96,-54.46 261.29,-58.8 271.55,-61.44 270.96,-54.46"/>
</g>
<!-- Node30&#45;&gt;Node8 -->
<g id="edge57" class="edge">
<title>Node30&#45;&gt;Node8</title>
<path fill="none" stroke="midnightblue" d="M271.42,-57.95C684.95,-25.6 793.58,-69.64 1202,-22 1204.87,-21.67 1207.82,-21.26 1210.78,-20.8"/>
<polygon fill="midnightblue" stroke="midnightblue" points="270.98,-54.48 261.29,-58.76 271.53,-61.46 270.98,-54.48"/>
</g>
<!-- Node31 -->
<g id="node31" class="node">
<title>Node31</title>
<g id="a_node31"><a xlink:href="NaturalDisaster_8cpp.html" target="_top" xlink:title=" ">
<polygon fill="none" stroke="black" points="182,-0.5 182,-21.5 322,-21.5 322,-0.5 182,-0.5"/>
<text text-anchor="middle" x="252" y="-7.9" font-family="Arial" font-size="12.00">src/NaturalDisaster.cpp</text>
</a>
</g>
</g>
<!-- Node30&#45;&gt;Node31 -->
<g id="edge58" class="edge">
<title>Node30&#45;&gt;Node31</title>
<path fill="none" stroke="midnightblue" d="M206.69,-51.65C217.82,-41.91 231.57,-29.88 240.98,-21.64"/>
<polygon fill="midnightblue" stroke="midnightblue" points="204.37,-49.03 199.15,-58.25 208.98,-54.29 204.37,-49.03"/>
</g>
<!-- Node32 -->
<g id="node32" class="node">
<title>Node32</title>
<g id="a_node32"><a xlink:href="testnaturaldisaster_8cpp.html" target="_top" xlink:title=" ">
<polygon fill="none" stroke="black" points="0,-0.5 0,-21.5 164,-21.5 164,-0.5 0,-0.5"/>
<text text-anchor="middle" x="82" y="-7.9" font-family="Arial" font-size="12.00">tests/testnaturaldisaster.cpp</text>
</a>
</g>
</g>
<!-- Node30&#45;&gt;Node32 -->
<g id="edge59" class="edge">
<title>Node30&#45;&gt;Node32</title>
<path fill="none" stroke="midnightblue" d="M160.48,-53.46C141.51,-43.44 116.83,-30.4 100.25,-21.64"/>
<polygon fill="midnightblue" stroke="midnightblue" points="159.06,-56.67 169.54,-58.25 162.33,-50.48 159.06,-56.67"/>
</g>
<!-- Node33&#45;&gt;Node6 -->
<g id="edge61" class="edge">
<title>Node33&#45;&gt;Node6</title>
<path fill="none" stroke="midnightblue" d="M561.78,-57.92C698.17,-41.49 734.27,-42.41 866,-22 868.91,-21.55 871.9,-21.06 874.91,-20.54"/>
<polygon fill="midnightblue" stroke="midnightblue" points="561.29,-54.45 551.78,-59.13 562.13,-61.4 561.29,-54.45"/>
</g>
<!-- Node33&#45;&gt;Node7 -->
<g id="edge62" class="edge">
<title>Node33&#45;&gt;Node7</title>
<path fill="none" stroke="midnightblue" d="M561.96,-57.94C744.17,-38.82 792.46,-46.2 970,-22 972.93,-21.6 975.94,-21.15 978.97,-20.67"/>
<polygon fill="midnightblue" stroke="midnightblue" points="561.34,-54.49 551.77,-59.02 562.08,-61.45 561.34,-54.49"/>
</g>
<!-- Node33&#45;&gt;Node8 -->
<g id="edge63" class="edge">
<title>Node33&#45;&gt;Node8</title>
<path fill="none" stroke="midnightblue" d="M561.98,-57.98C846.91,-32.66 922.2,-57.12 1202,-22 1204.86,-21.64 1207.81,-21.21 1210.77,-20.74"/>
<polygon fill="midnightblue" stroke="midnightblue" points="561.4,-54.52 551.76,-58.9 562.03,-61.49 561.4,-54.52"/>
</g>
<!-- Node34 -->
<g id="node34" class="node">
<title>Node34</title>
<g id="a_node34"><a xlink:href="PoliticalEvent_8cpp.html" target="_top" xlink:title=" ">
<polygon fill="none" stroke="black" points="403.5,-0.5 403.5,-21.5 534.5,-21.5 534.5,-0.5 403.5,-0.5"/>
<text text-anchor="middle" x="469" y="-7.9" font-family="Arial" font-size="12.00">src/PoliticalEvent.cpp</text>
</a>
</g>
</g>
<!-- Node33&#45;&gt;Node34 -->
<g id="edge64" class="edge">
<title>Node33&#45;&gt;Node34</title>
<path fill="none" stroke="midnightblue" d="M477.46,-48.45C475.36,-39.38 472.95,-29 471.24,-21.64"/>
<polygon fill="midnightblue" stroke="midnightblue" points="474.06,-49.3 479.74,-58.25 480.88,-47.71 474.06,-49.3"/>
</g>
<!-- Node35&#45;&gt;Node5 -->
<g id="edge69" class="edge">
<title>Node35&#45;&gt;Node5</title>
<path fill="none" stroke="midnightblue" d="M1270.5,-115.52C1197.01,-105.18 1085.64,-89.51 1014.62,-79.51"/>
<polygon fill="midnightblue" stroke="midnightblue" points="1270.22,-119.01 1280.61,-116.94 1271.2,-112.08 1270.22,-119.01"/>
</g>
<!-- Node35&#45;&gt;Node10 -->
<g id="edge70" class="edge">
<title>Node35&#45;&gt;Node10</title>
<path fill="none" stroke="midnightblue" d="M1324.13,-110.21C1311.14,-100.37 1294.84,-88.04 1283.74,-79.64"/>
<polygon fill="midnightblue" stroke="midnightblue" points="1322.02,-113 1332.11,-116.25 1326.25,-107.42 1322.02,-113"/>
</g>
<!-- Node35&#45;&gt;Node12 -->
<g id="edge71" class="edge">
<title>Node35&#45;&gt;Node12</title>
<path fill="none" stroke="midnightblue" d="M1298.51,-113.72C1259.53,-103.42 1204.66,-88.93 1168.97,-79.5"/>
<polygon fill="midnightblue" stroke="midnightblue" points="1297.99,-117.2 1308.56,-116.37 1299.78,-110.44 1297.99,-117.2"/>
</g>
<!-- Node35&#45;&gt;Node20 -->
<g id="edge67" class="edge">
<title>Node35&#45;&gt;Node20</title>
<path fill="none" stroke="midnightblue" d="M1419.32,-118.16C1504.35,-109.15 1647.75,-93.82 1771,-80 1786.24,-78.29 1802.98,-76.36 1817.62,-74.65"/>
<polygon fill="midnightblue" stroke="midnightblue" points="1418.83,-114.69 1409.25,-119.23 1419.56,-121.66 1418.83,-114.69"/>
</g>
<!-- Node35&#45;&gt;Node22 -->
<g id="edge72" class="edge">
<title>Node35&#45;&gt;Node22</title>
<path fill="none" stroke="midnightblue" d="M1419.61,-123.88C1550.6,-119.5 1816.43,-107.45 1905,-80 1947.27,-66.9 1990.94,-36.94 2011.66,-21.53"/>
<polygon fill="midnightblue" stroke="midnightblue" points="1419.15,-120.39 1409.27,-124.22 1419.38,-127.39 1419.15,-120.39"/>
</g>
<!-- Node35&#45;&gt;Node24 -->
<g id="edge68" class="edge">
<title>Node35&#45;&gt;Node24</title>
<path fill="none" stroke="midnightblue" d="M1419.22,-122.51C1537.35,-116.53 1775.3,-102.72 1976,-80 1980.65,-79.47 1985.48,-78.86 1990.31,-78.2"/>
<polygon fill="midnightblue" stroke="midnightblue" points="1419.01,-119.02 1409.2,-123.02 1419.36,-126.01 1419.01,-119.02"/>
</g>
<!-- Node36 -->
<g id="node36" class="node">
<title>Node36</title>
<g id="a_node36"><a xlink:href="PlayerBase_8cpp.html" target="_top" xlink:title=" ">
<polygon fill="none" stroke="black" points="1352,-58.5 1352,-79.5 1472,-79.5 1472,-58.5 1352,-58.5"/>
<text text-anchor="middle" x="1412" y="-65.9" font-family="Arial" font-size="12.00">src/PlayerBase.cpp</text>
</a>
</g>
</g>
<!-- Node35&#45;&gt;Node36 -->
<g id="edge66" class="edge">
<title>Node35&#45;&gt;Node36</title>
<path fill="none" stroke="midnightblue" d="M1364.57,-109.65C1376.22,-99.91 1390.61,-87.88 1400.46,-79.64"/>
<polygon fill="midnightblue" stroke="midnightblue" points="1362.1,-107.15 1356.67,-116.25 1366.59,-112.52 1362.1,-107.15"/>
</g>
</g>
</svg>
