<?xml version="1.0" encoding="UTF-8" standalone="no"?>
<!DOCTYPE svg PUBLIC "-//W3C//DTD SVG 1.1//EN"
 "http://www.w3.org/Graphics/SVG/1.1/DTD/svg11.dtd">
<!-- Generated by graphviz version 2.43.0 (0)
 -->
<!-- Title: EconomicEvent Pages: 1 -->
<svg width="126pt" height="350pt"
 viewBox="0.00 0.00 126.00 350.00" xmlns="http://www.w3.org/2000/svg" xmlns:xlink="http://www.w3.org/1999/xlink">
<g id="graph0" class="graph" transform="scale(1 1) rotate(0) translate(4 346)">
<title>EconomicEvent</title>
<!-- Node1 -->
<g id="node1" class="node">
<title>Node1</title>
<g id="a_node1"><a xlink:title="Класс, представляющий экономическое событие.">
<polygon fill="#bfbfbf" stroke="black" points="0,-0.5 0,-89.5 118,-89.5 118,-0.5 0,-0.5"/>
<text text-anchor="middle" x="59" y="-75.9" font-family="Arial" font-size="12.00">EconomicEvent</text>
<polyline fill="none" stroke="black" points="0,-68.5 118,-68.5 "/>
<text text-anchor="start" x="8" y="-54.9" font-family="Arial" font-size="12.00">+ type</text>
<text text-anchor="start" x="8" y="-41.9" font-family="Arial" font-size="12.00">+ impact</text>
<polyline fill="none" stroke="black" points="0,-34.5 118,-34.5 "/>
<text text-anchor="start" x="8" y="-20.9" font-family="Arial" font-size="12.00">+ EconomicEvent()</text>
<text text-anchor="start" x="8" y="-7.9" font-family="Arial" font-size="12.00">+ trigger()</text>
</a>
</g>
</g>
<!-- Node2 -->
<g id="node2" class="node">
<title>Node2</title>
<g id="a_node2"><a xlink:href="classEventCard.html" target="_top" xlink:title="Класс, представляющий карту события.">
<polygon fill="none" stroke="black" points="13.5,-126.5 13.5,-202.5 104.5,-202.5 104.5,-126.5 13.5,-126.5"/>
<text text-anchor="middle" x="59" y="-188.9" font-family="Arial" font-size="12.00">EventCard</text>
<polyline fill="none" stroke="black" points="13.5,-181.5 104.5,-181.5 "/>
<text text-anchor="start" x="21.5" y="-167.9" font-family="Arial" font-size="12.00">+ effect</text>
<polyline fill="none" stroke="black" points="13.5,-160.5 104.5,-160.5 "/>
<text text-anchor="start" x="21.5" y="-146.9" font-family="Arial" font-size="12.00">+ EventCard()</text>
<text text-anchor="start" x="21.5" y="-133.9" font-family="Arial" font-size="12.00">+ play()</text>
</a>
</g>
</g>
<!-- Node2&#45;&gt;Node1 -->
<g id="edge1" class="edge">
<title>Node2&#45;&gt;Node1</title>
<path fill="none" stroke="midnightblue" d="M59,-116.19C59,-107.37 59,-98.2 59,-89.5"/>
<polygon fill="none" stroke="midnightblue" points="55.5,-116.32 59,-126.32 62.5,-116.32 55.5,-116.32"/>
</g>
<!-- Node3 -->
<g id="node3" class="node">
<title>Node3</title>
<g id="a_node3"><a xlink:href="classCard.html" target="_top" xlink:title="Базовый класс для карт.">
<polygon fill="none" stroke="black" points="16.5,-239.5 16.5,-341.5 101.5,-341.5 101.5,-239.5 16.5,-239.5"/>
<text text-anchor="middle" x="59" y="-327.9" font-family="Arial" font-size="12.00">Card</text>
<polyline fill="none" stroke="black" points="16.5,-320.5 101.5,-320.5 "/>
<text text-anchor="start" x="24.5" y="-306.9" font-family="Arial" font-size="12.00">+ name</text>
<text text-anchor="start" x="24.5" y="-293.9" font-family="Arial" font-size="12.00">+ description</text>
<polyline fill="none" stroke="black" points="16.5,-286.5 101.5,-286.5 "/>
<text text-anchor="start" x="24.5" y="-272.9" font-family="Arial" font-size="12.00">+ Card()</text>
<text text-anchor="start" x="24.5" y="-259.9" font-family="Arial" font-size="12.00">+ play()</text>
<text text-anchor="start" x="24.5" y="-246.9" font-family="Arial" font-size="12.00">+ ~Card()</text>
</a>
</g>
</g>
<!-- Node3&#45;&gt;Node2 -->
<g id="edge2" class="edge">
<title>Node3&#45;&gt;Node2</title>
<path fill="none" stroke="midnightblue" d="M59,-229.28C59,-220.25 59,-211.16 59,-202.79"/>
<polygon fill="none" stroke="midnightblue" points="55.5,-229.42 59,-239.42 62.5,-229.42 55.5,-229.42"/>
</g>
</g>
</svg>
