<?xml version="1.0" encoding="UTF-8" standalone="no"?>
<!DOCTYPE svg PUBLIC "-//W3C//DTD SVG 1.1//EN"
 "http://www.w3.org/Graphics/SVG/1.1/DTD/svg11.dtd">
<!-- Generated by graphviz version 2.43.0 (0)
 -->
<!-- Title: Game::Game Pages: 1 -->
<svg width="228pt" height="70pt"
 viewBox="0.00 0.00 228.00 70.00" xmlns="http://www.w3.org/2000/svg" xmlns:xlink="http://www.w3.org/1999/xlink">
<g id="graph0" class="graph" transform="scale(1 1) rotate(0) translate(4 66)">
<title>Game::Game</title>
<!-- Node1 -->
<g id="node1" class="node">
<title>Node1</title>
<g id="a_node1"><a xlink:title="Конструктор класса Game.">
<polygon fill="#bfbfbf" stroke="black" points="0,-20.5 0,-41.5 87,-41.5 87,-20.5 0,-20.5"/>
<text text-anchor="middle" x="43.5" y="-27.9" font-family="Arial" font-size="12.00">Game::Game</text>
</a>
</g>
</g>
<!-- Node2 -->
<g id="node2" class="node">
<title>Node2</title>
<g id="a_node2"><a xlink:href="classDeck.html#a0251bfdd3bb8fd58ee40b67429567dd9" target="_top" xlink:title="Добавляет карту в колоду.">
<polygon fill="none" stroke="black" points="123,-40.5 123,-61.5 220,-61.5 220,-40.5 123,-40.5"/>
<text text-anchor="middle" x="171.5" y="-47.9" font-family="Arial" font-size="12.00">Deck::addCard</text>
</a>
</g>
</g>
<!-- Node1&#45;&gt;Node2 -->
<g id="edge1" class="edge">
<title>Node1&#45;&gt;Node2</title>
<path fill="none" stroke="midnightblue" d="M87.16,-37.77C95.37,-39.07 104.09,-40.46 112.69,-41.82"/>
<polygon fill="midnightblue" stroke="midnightblue" points="112.26,-45.3 122.69,-43.41 113.36,-38.39 112.26,-45.3"/>
</g>
<!-- Node3 -->
<g id="node3" class="node">
<title>Node3</title>
<g id="a_node3"><a xlink:href="classDeck.html#ae5a1e52ab00ae5924f2bc6b730dba3eb" target="_top" xlink:title="Перемешивает колоду карт.">
<polygon fill="none" stroke="black" points="128.5,-0.5 128.5,-21.5 214.5,-21.5 214.5,-0.5 128.5,-0.5"/>
<text text-anchor="middle" x="171.5" y="-7.9" font-family="Arial" font-size="12.00">Deck::shuffle</text>
</a>
</g>
</g>
<!-- Node1&#45;&gt;Node3 -->
<g id="edge2" class="edge">
<title>Node1&#45;&gt;Node3</title>
<path fill="none" stroke="midnightblue" d="M87.16,-24.23C97.12,-22.65 107.84,-20.95 118.16,-19.31"/>
<polygon fill="midnightblue" stroke="midnightblue" points="118.99,-22.72 128.31,-17.7 117.89,-15.81 118.99,-22.72"/>
</g>
</g>
</svg>
