<?xml version="1.0" encoding="UTF-8" standalone="no"?>
<!DOCTYPE svg PUBLIC "-//W3C//DTD SVG 1.1//EN"
 "http://www.w3.org/Graphics/SVG/1.1/DTD/svg11.dtd">
<!-- Generated by graphviz version 2.43.0 (0)
 -->
<!-- Title: StealCardEvent Pages: 1 -->
<svg width="346pt" height="389pt"
 viewBox="0.00 0.00 345.64 389.00" xmlns="http://www.w3.org/2000/svg" xmlns:xlink="http://www.w3.org/1999/xlink">
<g id="graph0" class="graph" transform="scale(1 1) rotate(0) translate(4 385)">
<title>StealCardEvent</title>
<!-- Node1 -->
<g id="node1" class="node">
<title>Node1</title>
<g id="a_node1"><a xlink:title="Класс, представляющий событие кражи карты.">
<polygon fill="#bfbfbf" stroke="black" points="80.14,-0.5 80.14,-76.5 199.14,-76.5 199.14,-0.5 80.14,-0.5"/>
<text text-anchor="middle" x="139.64" y="-62.9" font-family="Arial" font-size="12.00">StealCardEvent</text>
<polyline fill="none" stroke="black" points="80.14,-55.5 199.14,-55.5 "/>
<text text-anchor="middle" x="139.64" y="-41.9" font-family="Arial" font-size="12.00"> </text>
<polyline fill="none" stroke="black" points="80.14,-34.5 199.14,-34.5 "/>
<text text-anchor="start" x="88.14" y="-20.9" font-family="Arial" font-size="12.00">+ StealCardEvent()</text>
<text text-anchor="start" x="88.14" y="-7.9" font-family="Arial" font-size="12.00">+ trigger()</text>
</a>
</g>
</g>
<!-- Node2 -->
<g id="node2" class="node">
<title>Node2</title>
<g id="a_node2"><a xlink:href="classBonusCard.html" target="_top" xlink:title="Класс, представляющий бонусную карту.">
<polygon fill="none" stroke="black" points="92.14,-139.5 92.14,-215.5 187.14,-215.5 187.14,-139.5 92.14,-139.5"/>
<text text-anchor="middle" x="139.64" y="-201.9" font-family="Arial" font-size="12.00">BonusCard</text>
<polyline fill="none" stroke="black" points="92.14,-194.5 187.14,-194.5 "/>
<text text-anchor="start" x="100.14" y="-180.9" font-family="Arial" font-size="12.00">+ bonusType</text>
<polyline fill="none" stroke="black" points="92.14,-173.5 187.14,-173.5 "/>
<text text-anchor="start" x="100.14" y="-159.9" font-family="Arial" font-size="12.00">+ BonusCard()</text>
<text text-anchor="start" x="100.14" y="-146.9" font-family="Arial" font-size="12.00">+ play()</text>
</a>
</g>
</g>
<!-- Node2&#45;&gt;Node1 -->
<g id="edge1" class="edge">
<title>Node2&#45;&gt;Node1</title>
<path fill="none" stroke="midnightblue" d="M139.64,-129.03C139.64,-111.87 139.64,-92.75 139.64,-76.6"/>
<polygon fill="none" stroke="midnightblue" points="136.14,-129.43 139.64,-139.43 143.14,-129.43 136.14,-129.43"/>
</g>
<!-- Node3 -->
<g id="node3" class="node">
<title>Node3</title>
<g id="a_node3"><a xlink:href="classCard.html" target="_top" xlink:title="Базовый класс для карт.">
<polygon fill="none" stroke="black" points="2.14,-278.5 2.14,-380.5 87.14,-380.5 87.14,-278.5 2.14,-278.5"/>
<text text-anchor="middle" x="44.64" y="-366.9" font-family="Arial" font-size="12.00">Card</text>
<polyline fill="none" stroke="black" points="2.14,-359.5 87.14,-359.5 "/>
<text text-anchor="start" x="10.14" y="-345.9" font-family="Arial" font-size="12.00">+ name</text>
<text text-anchor="start" x="10.14" y="-332.9" font-family="Arial" font-size="12.00">+ description</text>
<polyline fill="none" stroke="black" points="2.14,-325.5 87.14,-325.5 "/>
<text text-anchor="start" x="10.14" y="-311.9" font-family="Arial" font-size="12.00">+ Card()</text>
<text text-anchor="start" x="10.14" y="-298.9" font-family="Arial" font-size="12.00">+ play()</text>
<text text-anchor="start" x="10.14" y="-285.9" font-family="Arial" font-size="12.00">+ ~Card()</text>
</a>
</g>
</g>
<!-- Node3&#45;&gt;Node1 -->
<g id="edge5" class="edge">
<title>Node3&#45;&gt;Node1</title>
<path fill="none" stroke="#404040" d="M20.64,-278.23C3.9,-235.44 -11.38,-173.52 13.64,-126 25.91,-102.69 47.61,-84.45 69.59,-70.86"/>
<polygon fill="none" stroke="#404040" points="69.66,-70.81 72.81,-64.33 80.01,-64.74 76.86,-71.23 69.66,-70.81"/>
<text text-anchor="middle" x="48.14" y="-174.4" font-family="Arial" font-size="12.00"> +stolenCard</text>
</g>
<!-- Node3&#45;&gt;Node2 -->
<g id="edge2" class="edge">
<title>Node3&#45;&gt;Node2</title>
<path fill="none" stroke="midnightblue" d="M82.08,-269.37C93.55,-251.28 105.83,-231.89 116.09,-215.69"/>
<polygon fill="none" stroke="midnightblue" points="78.93,-267.81 76.54,-278.13 84.84,-271.56 78.93,-267.81"/>
</g>
<!-- Node4 -->
<g id="node4" class="node">
<title>Node4</title>
<g id="a_node4"><a xlink:href="classPlayerBase.html" target="_top" xlink:title="Базовый класс для игроков.">
<polygon fill="none" stroke="black" points="205.14,-126.5 205.14,-228.5 308.14,-228.5 308.14,-126.5 205.14,-126.5"/>
<text text-anchor="middle" x="256.64" y="-214.9" font-family="Arial" font-size="12.00">PlayerBase</text>
<polyline fill="none" stroke="black" points="205.14,-207.5 308.14,-207.5 "/>
<text text-anchor="start" x="213.14" y="-193.9" font-family="Arial" font-size="12.00">+ name</text>
<text text-anchor="start" x="213.14" y="-180.9" font-family="Arial" font-size="12.00">+ score</text>
<text text-anchor="start" x="213.14" y="-167.9" font-family="Arial" font-size="12.00">+ hand</text>
<polyline fill="none" stroke="black" points="205.14,-160.5 308.14,-160.5 "/>
<text text-anchor="start" x="213.14" y="-146.9" font-family="Arial" font-size="12.00">+ PlayerBase()</text>
<text text-anchor="start" x="213.14" y="-133.9" font-family="Arial" font-size="12.00">+ ~PlayerBase()</text>
</a>
</g>
</g>
<!-- Node4&#45;&gt;Node1 -->
<g id="edge3" class="edge">
<title>Node4&#45;&gt;Node1</title>
<path fill="none" stroke="#404040" d="M213.74,-126.26C202.51,-113.11 190.45,-98.99 179.39,-86.05"/>
<polygon fill="none" stroke="#404040" points="179.33,-85.98 172.39,-84.01 171.54,-76.85 178.48,-78.82 179.33,-85.98"/>
<text text-anchor="middle" x="218.64" y="-98.4" font-family="Arial" font-size="12.00"> +target</text>
</g>
<!-- Node5 -->
<g id="node5" class="node">
<title>Node5</title>
<g id="a_node5"><a xlink:href="classCharacteristic.html" target="_top" xlink:title="Класс, представляющий характеристику.">
<polygon fill="none" stroke="black" points="203.14,-291.5 203.14,-367.5 310.14,-367.5 310.14,-291.5 203.14,-291.5"/>
<text text-anchor="middle" x="256.64" y="-353.9" font-family="Arial" font-size="12.00">Characteristic</text>
<polyline fill="none" stroke="black" points="203.14,-346.5 310.14,-346.5 "/>
<text text-anchor="start" x="211.14" y="-332.9" font-family="Arial" font-size="12.00">+ type</text>
<polyline fill="none" stroke="black" points="203.14,-325.5 310.14,-325.5 "/>
<text text-anchor="start" x="211.14" y="-311.9" font-family="Arial" font-size="12.00">+ Characteristic()</text>
<text text-anchor="start" x="211.14" y="-298.9" font-family="Arial" font-size="12.00">+ applyEffect()</text>
</a>
</g>
</g>
<!-- Node5&#45;&gt;Node4 -->
<g id="edge4" class="edge">
<title>Node5&#45;&gt;Node4</title>
<path fill="none" stroke="#404040" d="M256.64,-291.42C256.64,-276.2 256.64,-258.16 256.64,-241.01"/>
<polygon fill="none" stroke="#404040" points="256.64,-240.73 252.64,-234.73 256.64,-228.73 260.64,-234.73 256.64,-240.73"/>
<text text-anchor="middle" x="297.14" y="-250.4" font-family="Arial" font-size="12.00"> +characteristic</text>
</g>
</g>
</svg>
