<?xml version="1.0" encoding="UTF-8" standalone="no"?>
<!DOCTYPE svg PUBLIC "-//W3C//DTD SVG 1.1//EN"
 "http://www.w3.org/Graphics/SVG/1.1/DTD/svg11.dtd">
<!-- Generated by graphviz version 2.43.0 (0)
 -->
<!-- Title: include/economicevent.h Pages: 1 -->
<svg width="464pt" height="88pt"
 viewBox="0.00 0.00 464.00 88.00" xmlns="http://www.w3.org/2000/svg" xmlns:xlink="http://www.w3.org/1999/xlink">
<g id="graph0" class="graph" transform="scale(1 1) rotate(0) translate(4 84)">
<title>include/economicevent.h</title>
<!-- Node1 -->
<g id="node1" class="node">
<title>Node1</title>
<g id="a_node1"><a xlink:title=" ">
<polygon fill="#bfbfbf" stroke="black" points="167.5,-58.5 167.5,-79.5 316.5,-79.5 316.5,-58.5 167.5,-58.5"/>
<text text-anchor="middle" x="242" y="-65.9" font-family="Arial" font-size="12.00">include/economicevent.h</text>
</a>
</g>
</g>
<!-- Node2 -->
<g id="node2" class="node">
<title>Node2</title>
<g id="a_node2"><a xlink:href="Deck_8cpp.html" target="_top" xlink:title=" ">
<polygon fill="none" stroke="black" points="0,-0.5 0,-21.5 86,-21.5 86,-0.5 0,-0.5"/>
<text text-anchor="middle" x="43" y="-7.9" font-family="Arial" font-size="12.00">src/Deck.cpp</text>
</a>
</g>
</g>
<!-- Node1&#45;&gt;Node2 -->
<g id="edge1" class="edge">
<title>Node1&#45;&gt;Node2</title>
<path fill="none" stroke="midnightblue" d="M197.89,-55.59C161.33,-45.3 110.13,-30.89 76.76,-21.5"/>
<polygon fill="midnightblue" stroke="midnightblue" points="197.22,-59.03 207.79,-58.37 199.11,-52.3 197.22,-59.03"/>
</g>
<!-- Node3 -->
<g id="node3" class="node">
<title>Node3</title>
<g id="a_node3"><a xlink:href="EconomicEvent_8cpp.html" target="_top" xlink:title=" ">
<polygon fill="none" stroke="black" points="104,-0.5 104,-21.5 246,-21.5 246,-0.5 104,-0.5"/>
<text text-anchor="middle" x="175" y="-7.9" font-family="Arial" font-size="12.00">src/EconomicEvent.cpp</text>
</a>
</g>
</g>
<!-- Node1&#45;&gt;Node3 -->
<g id="edge2" class="edge">
<title>Node1&#45;&gt;Node3</title>
<path fill="none" stroke="midnightblue" d="M222.43,-51.65C210.78,-41.91 196.39,-29.88 186.54,-21.64"/>
<polygon fill="midnightblue" stroke="midnightblue" points="220.41,-54.52 230.33,-58.25 224.9,-49.15 220.41,-54.52"/>
</g>
<!-- Node4 -->
<g id="node4" class="node">
<title>Node4</title>
<g id="a_node4"><a xlink:href="Game_8cpp.html" target="_top" xlink:title=" ">
<polygon fill="none" stroke="black" points="264,-0.5 264,-21.5 354,-21.5 354,-0.5 264,-0.5"/>
<text text-anchor="middle" x="309" y="-7.9" font-family="Arial" font-size="12.00">src/Game.cpp</text>
</a>
</g>
</g>
<!-- Node1&#45;&gt;Node4 -->
<g id="edge3" class="edge">
<title>Node1&#45;&gt;Node4</title>
<path fill="none" stroke="midnightblue" d="M261.57,-51.65C273.22,-41.91 287.61,-29.88 297.46,-21.64"/>
<polygon fill="midnightblue" stroke="midnightblue" points="259.1,-49.15 253.67,-58.25 263.59,-54.52 259.1,-49.15"/>
</g>
<!-- Node5 -->
<g id="node5" class="node">
<title>Node5</title>
<g id="a_node5"><a xlink:href="main_8cpp.html" target="_top" xlink:title=" ">
<polygon fill="none" stroke="black" points="372,-0.5 372,-21.5 456,-21.5 456,-0.5 372,-0.5"/>
<text text-anchor="middle" x="414" y="-7.9" font-family="Arial" font-size="12.00">src/main.cpp</text>
</a>
</g>
</g>
<!-- Node1&#45;&gt;Node5 -->
<g id="edge4" class="edge">
<title>Node1&#45;&gt;Node5</title>
<path fill="none" stroke="midnightblue" d="M281.34,-55.19C312.86,-44.93 356.35,-30.77 384.82,-21.5"/>
<polygon fill="midnightblue" stroke="midnightblue" points="279.99,-51.95 271.57,-58.37 282.16,-58.61 279.99,-51.95"/>
</g>
</g>
</svg>
