<?xml version="1.0" encoding="UTF-8" standalone="no"?>
<!DOCTYPE svg PUBLIC "-//W3C//DTD SVG 1.1//EN"
 "http://www.w3.org/Graphics/SVG/1.1/DTD/svg11.dtd">
<!-- Generated by graphviz version 2.43.0 (0)
 -->
<!-- Title: src/Graphics.cpp Pages: 1 -->
<svg width="181pt" height="204pt"
 viewBox="0.00 0.00 180.50 204.00" xmlns="http://www.w3.org/2000/svg" xmlns:xlink="http://www.w3.org/1999/xlink">
<g id="graph0" class="graph" transform="scale(1 1) rotate(0) translate(4 200)">
<title>src/Graphics.cpp</title>
<!-- Node1 -->
<g id="node1" class="node">
<title>Node1</title>
<g id="a_node1"><a xlink:title=" ">
<polygon fill="#bfbfbf" stroke="black" points="45.5,-174.5 45.5,-195.5 151.5,-195.5 151.5,-174.5 45.5,-174.5"/>
<text text-anchor="middle" x="98.5" y="-181.9" font-family="Arial" font-size="12.00">src/Graphics.cpp</text>
</a>
</g>
</g>
<!-- Node2 -->
<g id="node2" class="node">
<title>Node2</title>
<g id="a_node2"><a xlink:href="graphics_8h.html" target="_top" xlink:title=" ">
<polygon fill="none" stroke="black" points="20.5,-116.5 20.5,-137.5 92.5,-137.5 92.5,-116.5 20.5,-116.5"/>
<text text-anchor="middle" x="56.5" y="-123.9" font-family="Arial" font-size="12.00">graphics.h</text>
</a>
</g>
</g>
<!-- Node1&#45;&gt;Node2 -->
<g id="edge1" class="edge">
<title>Node1&#45;&gt;Node2</title>
<path fill="none" stroke="midnightblue" d="M91.18,-174.25C85.28,-166.38 76.83,-155.1 69.74,-145.65"/>
<polygon fill="midnightblue" stroke="midnightblue" points="72.53,-143.54 63.73,-137.64 66.93,-147.74 72.53,-143.54"/>
</g>
<!-- Node6 -->
<g id="node6" class="node">
<title>Node6</title>
<g id="a_node6"><a xlink:title=" ">
<polygon fill="none" stroke="#bfbfbf" points="110.5,-116.5 110.5,-137.5 172.5,-137.5 172.5,-116.5 110.5,-116.5"/>
<text text-anchor="middle" x="141.5" y="-123.9" font-family="Arial" font-size="12.00">iostream</text>
</a>
</g>
</g>
<!-- Node1&#45;&gt;Node6 -->
<g id="edge5" class="edge">
<title>Node1&#45;&gt;Node6</title>
<path fill="none" stroke="midnightblue" d="M105.99,-174.25C112.03,-166.38 120.69,-155.1 127.94,-145.65"/>
<polygon fill="midnightblue" stroke="midnightblue" points="130.78,-147.71 134.1,-137.64 125.23,-143.44 130.78,-147.71"/>
</g>
<!-- Node3 -->
<g id="node3" class="node">
<title>Node3</title>
<g id="a_node3"><a xlink:title=" ">
<polygon fill="none" stroke="#bfbfbf" points="0,-58.5 0,-79.5 49,-79.5 49,-58.5 0,-58.5"/>
<text text-anchor="middle" x="24.5" y="-65.9" font-family="Arial" font-size="12.00">vector</text>
</a>
</g>
</g>
<!-- Node2&#45;&gt;Node3 -->
<g id="edge2" class="edge">
<title>Node2&#45;&gt;Node3</title>
<path fill="none" stroke="midnightblue" d="M50.93,-116.25C46.57,-108.62 40.38,-97.79 35.09,-88.53"/>
<polygon fill="midnightblue" stroke="midnightblue" points="38.01,-86.59 30.01,-79.64 31.93,-90.06 38.01,-86.59"/>
</g>
<!-- Node4 -->
<g id="node4" class="node">
<title>Node4</title>
<g id="a_node4"><a xlink:href="cell_8h.html" target="_top" xlink:title=" ">
<polygon fill="none" stroke="black" points="67,-58.5 67,-79.5 112,-79.5 112,-58.5 67,-58.5"/>
<text text-anchor="middle" x="89.5" y="-65.9" font-family="Arial" font-size="12.00">cell.h</text>
</a>
</g>
</g>
<!-- Node2&#45;&gt;Node4 -->
<g id="edge3" class="edge">
<title>Node2&#45;&gt;Node4</title>
<path fill="none" stroke="midnightblue" d="M62.25,-116.25C66.74,-108.62 73.12,-97.79 78.58,-88.53"/>
<polygon fill="midnightblue" stroke="midnightblue" points="81.76,-90.04 83.82,-79.64 75.73,-86.48 81.76,-90.04"/>
</g>
<!-- Node5 -->
<g id="node5" class="node">
<title>Node5</title>
<g id="a_node5"><a xlink:title=" ">
<polygon fill="none" stroke="#bfbfbf" points="66.5,-0.5 66.5,-21.5 112.5,-21.5 112.5,-0.5 66.5,-0.5"/>
<text text-anchor="middle" x="89.5" y="-7.9" font-family="Arial" font-size="12.00">string</text>
</a>
</g>
</g>
<!-- Node4&#45;&gt;Node5 -->
<g id="edge4" class="edge">
<title>Node4&#45;&gt;Node5</title>
<path fill="none" stroke="midnightblue" d="M89.5,-58.25C89.5,-50.94 89.5,-40.69 89.5,-31.7"/>
<polygon fill="midnightblue" stroke="midnightblue" points="93,-31.64 89.5,-21.64 86,-31.64 93,-31.64"/>
</g>
</g>
</svg>
