<?xml version="1.0" encoding="UTF-8" standalone="no"?>
<!DOCTYPE svg PUBLIC "-//W3C//DTD SVG 1.1//EN"
 "http://www.w3.org/Graphics/SVG/1.1/DTD/svg11.dtd">
<!-- Generated by graphviz version 2.43.0 (0)
 -->
<!-- Title: include/playerbase.h Pages: 1 -->
<svg width="1483pt" height="146pt"
 viewBox="0.00 0.00 1482.50 146.00" xmlns="http://www.w3.org/2000/svg" xmlns:xlink="http://www.w3.org/1999/xlink">
<g id="graph0" class="graph" transform="scale(1 1) rotate(0) translate(4 142)">
<title>include/playerbase.h</title>
<!-- Node1 -->
<g id="node1" class="node">
<title>Node1</title>
<g id="a_node1"><a xlink:title=" ">
<polygon fill="#bfbfbf" stroke="black" points="570.5,-116.5 570.5,-137.5 698.5,-137.5 698.5,-116.5 570.5,-116.5"/>
<text text-anchor="middle" x="634.5" y="-123.9" font-family="Arial" font-size="12.00">include/playerbase.h</text>
</a>
</g>
</g>
<!-- Node2 -->
<g id="node2" class="node">
<title>Node2</title>
<g id="a_node2"><a xlink:href="PlayerBase_8cpp.html" target="_top" xlink:title=" ">
<polygon fill="none" stroke="black" points="225.5,-58.5 225.5,-79.5 345.5,-79.5 345.5,-58.5 225.5,-58.5"/>
<text text-anchor="middle" x="285.5" y="-65.9" font-family="Arial" font-size="12.00">src/PlayerBase.cpp</text>
</a>
</g>
</g>
<!-- Node1&#45;&gt;Node2 -->
<g id="edge1" class="edge">
<title>Node1&#45;&gt;Node2</title>
<path fill="none" stroke="midnightblue" d="M564.83,-114.82C500.43,-104.49 405.75,-89.29 344.85,-79.52"/>
<polygon fill="midnightblue" stroke="midnightblue" points="564.47,-118.31 574.9,-116.44 565.58,-111.4 564.47,-118.31"/>
</g>
<!-- Node3 -->
<g id="node3" class="node">
<title>Node3</title>
<g id="a_node3"><a xlink:href="ai_8h.html" target="_top" xlink:title=" ">
<polygon fill="none" stroke="black" points="363.5,-58.5 363.5,-79.5 441.5,-79.5 441.5,-58.5 363.5,-58.5"/>
<text text-anchor="middle" x="402.5" y="-65.9" font-family="Arial" font-size="12.00">include/ai.h</text>
</a>
</g>
</g>
<!-- Node1&#45;&gt;Node3 -->
<g id="edge2" class="edge">
<title>Node1&#45;&gt;Node3</title>
<path fill="none" stroke="midnightblue" d="M584.95,-114.04C542.11,-103.7 481.03,-88.95 441.57,-79.43"/>
<polygon fill="midnightblue" stroke="midnightblue" points="584.34,-117.49 594.88,-116.44 585.98,-110.69 584.34,-117.49"/>
</g>
<!-- Node8 -->
<g id="node8" class="node">
<title>Node8</title>
<g id="a_node8"><a xlink:href="testgame_8cpp.html" target="_top" xlink:title=" ">
<polygon fill="none" stroke="black" points="344.5,-0.5 344.5,-21.5 460.5,-21.5 460.5,-0.5 344.5,-0.5"/>
<text text-anchor="middle" x="402.5" y="-7.9" font-family="Arial" font-size="12.00">tests/testgame.cpp</text>
</a>
</g>
</g>
<!-- Node1&#45;&gt;Node8 -->
<g id="edge28" class="edge">
<title>Node1&#45;&gt;Node8</title>
<path fill="none" stroke="midnightblue" d="M605.94,-111.96C558.08,-88.45 462.94,-41.7 421.99,-21.58"/>
<polygon fill="midnightblue" stroke="midnightblue" points="604.6,-115.21 615.12,-116.48 607.69,-108.93 604.6,-115.21"/>
</g>
<!-- Node9 -->
<g id="node9" class="node">
<title>Node9</title>
<g id="a_node9"><a xlink:href="player_8h.html" target="_top" xlink:title=" ">
<polygon fill="none" stroke="black" points="584,-58.5 584,-79.5 685,-79.5 685,-58.5 584,-58.5"/>
<text text-anchor="middle" x="634.5" y="-65.9" font-family="Arial" font-size="12.00">include/player.h</text>
</a>
</g>
</g>
<!-- Node1&#45;&gt;Node9 -->
<g id="edge8" class="edge">
<title>Node1&#45;&gt;Node9</title>
<path fill="none" stroke="midnightblue" d="M634.5,-106.16C634.5,-97.16 634.5,-86.92 634.5,-79.64"/>
<polygon fill="midnightblue" stroke="midnightblue" points="631,-106.25 634.5,-116.25 638,-106.25 631,-106.25"/>
</g>
<!-- Node12 -->
<g id="node12" class="node">
<title>Node12</title>
<g id="a_node12"><a xlink:href="stealcardevent_8h.html" target="_top" xlink:title=" ">
<polygon fill="none" stroke="black" points="851.5,-58.5 851.5,-79.5 997.5,-79.5 997.5,-58.5 851.5,-58.5"/>
<text text-anchor="middle" x="924.5" y="-65.9" font-family="Arial" font-size="12.00">include/stealcardevent.h</text>
</a>
</g>
</g>
<!-- Node1&#45;&gt;Node12 -->
<g id="edge13" class="edge">
<title>Node1&#45;&gt;Node12</title>
<path fill="none" stroke="midnightblue" d="M694.05,-114.5C747.52,-104.17 825.1,-89.19 875.18,-79.52"/>
<polygon fill="midnightblue" stroke="midnightblue" points="693.18,-111.1 684.02,-116.44 694.51,-117.98 693.18,-111.1"/>
</g>
<!-- Node16 -->
<g id="node16" class="node">
<title>Node16</title>
<g id="a_node16"><a xlink:href="tradeevent_8h.html" target="_top" xlink:title=" ">
<polygon fill="none" stroke="black" points="1016,-58.5 1016,-79.5 1141,-79.5 1141,-58.5 1016,-58.5"/>
<text text-anchor="middle" x="1078.5" y="-65.9" font-family="Arial" font-size="12.00">include/tradeevent.h</text>
</a>
</g>
</g>
<!-- Node1&#45;&gt;Node16 -->
<g id="edge18" class="edge">
<title>Node1&#45;&gt;Node16</title>
<path fill="none" stroke="midnightblue" d="M709.02,-117.12C784.15,-108.08 903.44,-93.53 1006.5,-80 1009.5,-79.61 1012.58,-79.2 1015.68,-78.78"/>
<polygon fill="midnightblue" stroke="midnightblue" points="708.23,-113.69 698.72,-118.35 709.07,-120.64 708.23,-113.69"/>
</g>
<!-- Node18 -->
<g id="node18" class="node">
<title>Node18</title>
<g id="a_node18"><a xlink:href="varevent_8h.html" target="_top" xlink:title=" ">
<polygon fill="none" stroke="black" points="1159.5,-58.5 1159.5,-79.5 1273.5,-79.5 1273.5,-58.5 1159.5,-58.5"/>
<text text-anchor="middle" x="1216.5" y="-65.9" font-family="Arial" font-size="12.00">include/varevent.h</text>
</a>
</g>
</g>
<!-- Node1&#45;&gt;Node18 -->
<g id="edge23" class="edge">
<title>Node1&#45;&gt;Node18</title>
<path fill="none" stroke="midnightblue" d="M708.89,-120.74C809.14,-113.34 993.09,-98.64 1149.5,-80 1152.65,-79.62 1155.89,-79.22 1159.15,-78.79"/>
<polygon fill="midnightblue" stroke="midnightblue" points="708.57,-117.26 698.86,-121.48 709.09,-124.24 708.57,-117.26"/>
</g>
<!-- Node4 -->
<g id="node4" class="node">
<title>Node4</title>
<g id="a_node4"><a xlink:href="AI_8cpp.html" target="_top" xlink:title=" ">
<polygon fill="none" stroke="black" points="0,-0.5 0,-21.5 69,-21.5 69,-0.5 0,-0.5"/>
<text text-anchor="middle" x="34.5" y="-7.9" font-family="Arial" font-size="12.00">src/AI.cpp</text>
</a>
</g>
</g>
<!-- Node3&#45;&gt;Node4 -->
<g id="edge3" class="edge">
<title>Node3&#45;&gt;Node4</title>
<path fill="none" stroke="midnightblue" d="M353.08,-57.87C230.32,-37.66 196.44,-43.51 77.5,-22 74.78,-21.51 71.98,-20.96 69.17,-20.37"/>
<polygon fill="midnightblue" stroke="midnightblue" points="352.81,-61.37 363.25,-59.57 353.97,-54.47 352.81,-61.37"/>
</g>
<!-- Node5 -->
<g id="node5" class="node">
<title>Node5</title>
<g id="a_node5"><a xlink:href="main_8cpp.html" target="_top" xlink:title=" ">
<polygon fill="none" stroke="black" points="755.5,-0.5 755.5,-21.5 839.5,-21.5 839.5,-0.5 755.5,-0.5"/>
<text text-anchor="middle" x="797.5" y="-7.9" font-family="Arial" font-size="12.00">src/main.cpp</text>
</a>
</g>
</g>
<!-- Node3&#45;&gt;Node5 -->
<g id="edge4" class="edge">
<title>Node3&#45;&gt;Node5</title>
<path fill="none" stroke="midnightblue" d="M451.81,-62.36C518.73,-54.49 641.96,-39.22 746.5,-22 749.35,-21.53 752.28,-21.02 755.23,-20.49"/>
<polygon fill="midnightblue" stroke="midnightblue" points="451.09,-58.92 441.56,-63.56 451.9,-65.87 451.09,-58.92"/>
</g>
<!-- Node6 -->
<g id="node6" class="node">
<title>Node6</title>
<g id="a_node6"><a xlink:href="testai_8cpp.html" target="_top" xlink:title=" ">
<polygon fill="none" stroke="black" points="87,-0.5 87,-21.5 182,-21.5 182,-0.5 87,-0.5"/>
<text text-anchor="middle" x="134.5" y="-7.9" font-family="Arial" font-size="12.00">tests/testai.cpp</text>
</a>
</g>
</g>
<!-- Node3&#45;&gt;Node6 -->
<g id="edge5" class="edge">
<title>Node3&#45;&gt;Node6</title>
<path fill="none" stroke="midnightblue" d="M353.42,-57.74C303.98,-47.41 228.32,-31.6 180.15,-21.54"/>
<polygon fill="midnightblue" stroke="midnightblue" points="352.74,-61.18 363.24,-59.8 354.17,-54.33 352.74,-61.18"/>
</g>
<!-- Node7 -->
<g id="node7" class="node">
<title>Node7</title>
<g id="a_node7"><a xlink:href="testaiboard_8cpp.html" target="_top" xlink:title=" ">
<polygon fill="none" stroke="black" points="200.5,-0.5 200.5,-21.5 326.5,-21.5 326.5,-0.5 200.5,-0.5"/>
<text text-anchor="middle" x="263.5" y="-7.9" font-family="Arial" font-size="12.00">tests/testaiboard.cpp</text>
</a>
</g>
</g>
<!-- Node3&#45;&gt;Node7 -->
<g id="edge6" class="edge">
<title>Node3&#45;&gt;Node7</title>
<path fill="none" stroke="midnightblue" d="M369.04,-54.52C343.72,-44.32 309.59,-30.57 287.08,-21.5"/>
<polygon fill="midnightblue" stroke="midnightblue" points="368.02,-57.88 378.61,-58.37 370.64,-51.39 368.02,-57.88"/>
</g>
<!-- Node3&#45;&gt;Node8 -->
<g id="edge7" class="edge">
<title>Node3&#45;&gt;Node8</title>
<path fill="none" stroke="midnightblue" d="M402.5,-48.16C402.5,-39.16 402.5,-28.92 402.5,-21.64"/>
<polygon fill="midnightblue" stroke="midnightblue" points="399,-48.25 402.5,-58.25 406,-48.25 399,-48.25"/>
</g>
<!-- Node9&#45;&gt;Node5 -->
<g id="edge9" class="edge">
<title>Node9&#45;&gt;Node5</title>
<path fill="none" stroke="midnightblue" d="M672.17,-55.06C702,-44.81 742.99,-30.73 769.84,-21.5"/>
<polygon fill="midnightblue" stroke="midnightblue" points="670.84,-51.81 662.52,-58.37 673.12,-58.43 670.84,-51.81"/>
</g>
<!-- Node9&#45;&gt;Node8 -->
<g id="edge11" class="edge">
<title>Node9&#45;&gt;Node8</title>
<path fill="none" stroke="midnightblue" d="M584.98,-56.05C542.28,-45.74 481.43,-31.05 441.96,-21.52"/>
<polygon fill="midnightblue" stroke="midnightblue" points="584.34,-59.49 594.88,-58.44 585.98,-52.69 584.34,-59.49"/>
</g>
<!-- Node10 -->
<g id="node10" class="node">
<title>Node10</title>
<g id="a_node10"><a xlink:href="Player_8cpp.html" target="_top" xlink:title=" ">
<polygon fill="none" stroke="black" points="478.5,-0.5 478.5,-21.5 570.5,-21.5 570.5,-0.5 478.5,-0.5"/>
<text text-anchor="middle" x="524.5" y="-7.9" font-family="Arial" font-size="12.00">src/Player.cpp</text>
</a>
</g>
</g>
<!-- Node9&#45;&gt;Node10 -->
<g id="edge10" class="edge">
<title>Node9&#45;&gt;Node10</title>
<path fill="none" stroke="midnightblue" d="M606.21,-53.6C586.49,-43.56 560.72,-30.44 543.44,-21.64"/>
<polygon fill="midnightblue" stroke="midnightblue" points="604.84,-56.83 615.34,-58.25 608.02,-50.59 604.84,-56.83"/>
</g>
<!-- Node11 -->
<g id="node11" class="node">
<title>Node11</title>
<g id="a_node11"><a xlink:href="testplayerboard_8cpp.html" target="_top" xlink:title=" ">
<polygon fill="none" stroke="black" points="589,-0.5 589,-21.5 738,-21.5 738,-0.5 589,-0.5"/>
<text text-anchor="middle" x="663.5" y="-7.9" font-family="Arial" font-size="12.00">tests/testplayerboard.cpp</text>
</a>
</g>
</g>
<!-- Node9&#45;&gt;Node11 -->
<g id="edge12" class="edge">
<title>Node9&#45;&gt;Node11</title>
<path fill="none" stroke="midnightblue" d="M644.16,-49.34C648.97,-40.06 654.57,-29.24 658.51,-21.64"/>
<polygon fill="midnightblue" stroke="midnightblue" points="641.04,-47.76 639.55,-58.25 647.26,-50.98 641.04,-47.76"/>
</g>
<!-- Node12&#45;&gt;Node5 -->
<g id="edge16" class="edge">
<title>Node12&#45;&gt;Node5</title>
<path fill="none" stroke="midnightblue" d="M893.31,-54.25C870.25,-44.08 839.43,-30.49 819.05,-21.5"/>
<polygon fill="midnightblue" stroke="midnightblue" points="892.11,-57.54 902.67,-58.37 894.93,-51.14 892.11,-57.54"/>
</g>
<!-- Node13 -->
<g id="node13" class="node">
<title>Node13</title>
<g id="a_node13"><a xlink:href="Deck_8cpp.html" target="_top" xlink:title=" ">
<polygon fill="none" stroke="black" points="1156.5,-0.5 1156.5,-21.5 1242.5,-21.5 1242.5,-0.5 1156.5,-0.5"/>
<text text-anchor="middle" x="1199.5" y="-7.9" font-family="Arial" font-size="12.00">src/Deck.cpp</text>
</a>
</g>
</g>
<!-- Node12&#45;&gt;Node13 -->
<g id="edge14" class="edge">
<title>Node12&#45;&gt;Node13</title>
<path fill="none" stroke="midnightblue" d="M981.53,-56.39C1033.53,-45.8 1109.23,-30.38 1156.36,-20.79"/>
<polygon fill="midnightblue" stroke="midnightblue" points="980.56,-53.01 971.46,-58.44 981.96,-59.87 980.56,-53.01"/>
</g>
<!-- Node14 -->
<g id="node14" class="node">
<title>Node14</title>
<g id="a_node14"><a xlink:href="Game_8cpp.html" target="_top" xlink:title=" ">
<polygon fill="none" stroke="black" points="1260.5,-0.5 1260.5,-21.5 1350.5,-21.5 1350.5,-0.5 1260.5,-0.5"/>
<text text-anchor="middle" x="1305.5" y="-7.9" font-family="Arial" font-size="12.00">src/Game.cpp</text>
</a>
</g>
</g>
<!-- Node12&#45;&gt;Node14 -->
<g id="edge15" class="edge">
<title>Node12&#45;&gt;Node14</title>
<path fill="none" stroke="midnightblue" d="M1007.65,-57.32C1073.83,-48.57 1168.75,-35.48 1251.5,-22 1254.42,-21.52 1257.42,-21.02 1260.44,-20.49"/>
<polygon fill="midnightblue" stroke="midnightblue" points="1007.15,-53.85 997.69,-58.63 1008.06,-60.79 1007.15,-53.85"/>
</g>
<!-- Node15 -->
<g id="node15" class="node">
<title>Node15</title>
<g id="a_node15"><a xlink:href="StealCardEvent_8cpp.html" target="_top" xlink:title=" ">
<polygon fill="none" stroke="black" points="858,-0.5 858,-21.5 1001,-21.5 1001,-0.5 858,-0.5"/>
<text text-anchor="middle" x="929.5" y="-7.9" font-family="Arial" font-size="12.00">src/StealCardEvent.cpp</text>
</a>
</g>
</g>
<!-- Node12&#45;&gt;Node15 -->
<g id="edge17" class="edge">
<title>Node12&#45;&gt;Node15</title>
<path fill="none" stroke="midnightblue" d="M926.27,-48.16C927.08,-39.16 927.99,-28.92 928.64,-21.64"/>
<polygon fill="midnightblue" stroke="midnightblue" points="922.77,-47.97 925.37,-58.25 929.75,-48.6 922.77,-47.97"/>
</g>
<!-- Node16&#45;&gt;Node5 -->
<g id="edge21" class="edge">
<title>Node16&#45;&gt;Node5</title>
<path fill="none" stroke="midnightblue" d="M1020.44,-56.43C966.62,-45.7 887.85,-30.01 839.78,-20.43"/>
<polygon fill="midnightblue" stroke="midnightblue" points="1020.02,-59.91 1030.51,-58.44 1021.39,-53.05 1020.02,-59.91"/>
</g>
<!-- Node16&#45;&gt;Node13 -->
<g id="edge19" class="edge">
<title>Node16&#45;&gt;Node13</title>
<path fill="none" stroke="midnightblue" d="M1108.51,-54.11C1130.45,-43.96 1159.64,-30.45 1178.97,-21.5"/>
<polygon fill="midnightblue" stroke="midnightblue" points="1106.91,-51 1099.3,-58.37 1109.85,-57.35 1106.91,-51"/>
</g>
<!-- Node16&#45;&gt;Node14 -->
<g id="edge20" class="edge">
<title>Node16&#45;&gt;Node14</title>
<path fill="none" stroke="midnightblue" d="M1127.22,-55.98C1168.98,-45.68 1228.35,-31.03 1266.9,-21.52"/>
<polygon fill="midnightblue" stroke="midnightblue" points="1126.14,-52.64 1117.26,-58.44 1127.81,-59.44 1126.14,-52.64"/>
</g>
<!-- Node17 -->
<g id="node17" class="node">
<title>Node17</title>
<g id="a_node17"><a xlink:href="TradeEvent_8cpp.html" target="_top" xlink:title=" ">
<polygon fill="none" stroke="black" points="1019,-0.5 1019,-21.5 1138,-21.5 1138,-0.5 1019,-0.5"/>
<text text-anchor="middle" x="1078.5" y="-7.9" font-family="Arial" font-size="12.00">src/TradeEvent.cpp</text>
</a>
</g>
</g>
<!-- Node16&#45;&gt;Node17 -->
<g id="edge22" class="edge">
<title>Node16&#45;&gt;Node17</title>
<path fill="none" stroke="midnightblue" d="M1078.5,-48.16C1078.5,-39.16 1078.5,-28.92 1078.5,-21.64"/>
<polygon fill="midnightblue" stroke="midnightblue" points="1075,-48.25 1078.5,-58.25 1082,-48.25 1075,-48.25"/>
</g>
<!-- Node18&#45;&gt;Node5 -->
<g id="edge26" class="edge">
<title>Node18&#45;&gt;Node5</title>
<path fill="none" stroke="midnightblue" d="M1149.81,-58.04C1149.7,-58.03 1149.6,-58.01 1149.5,-58 1015.97,-40.05 981.59,-42.98 848.5,-22 845.65,-21.55 842.71,-21.06 839.76,-20.54"/>
<polygon fill="midnightblue" stroke="midnightblue" points="1149.11,-61.48 1159.5,-59.38 1150.07,-54.54 1149.11,-61.48"/>
</g>
<!-- Node18&#45;&gt;Node13 -->
<g id="edge24" class="edge">
<title>Node18&#45;&gt;Node13</title>
<path fill="none" stroke="midnightblue" d="M1210.57,-48.45C1207.81,-39.38 1204.66,-29 1202.43,-21.64"/>
<polygon fill="midnightblue" stroke="midnightblue" points="1207.28,-49.69 1213.54,-58.25 1213.98,-47.66 1207.28,-49.69"/>
</g>
<!-- Node18&#45;&gt;Node14 -->
<g id="edge25" class="edge">
<title>Node18&#45;&gt;Node14</title>
<path fill="none" stroke="midnightblue" d="M1240.71,-52.77C1256.48,-42.85 1276.58,-30.2 1290.18,-21.64"/>
<polygon fill="midnightblue" stroke="midnightblue" points="1238.6,-49.96 1232,-58.25 1242.33,-55.88 1238.6,-49.96"/>
</g>
<!-- Node19 -->
<g id="node19" class="node">
<title>Node19</title>
<g id="a_node19"><a xlink:href="VarEvent_8cpp.html" target="_top" xlink:title=" ">
<polygon fill="none" stroke="black" points="1368.5,-0.5 1368.5,-21.5 1474.5,-21.5 1474.5,-0.5 1368.5,-0.5"/>
<text text-anchor="middle" x="1421.5" y="-7.9" font-family="Arial" font-size="12.00">src/VarEvent.cpp</text>
</a>
</g>
</g>
<!-- Node18&#45;&gt;Node19 -->
<g id="edge27" class="edge">
<title>Node18&#45;&gt;Node19</title>
<path fill="none" stroke="midnightblue" d="M1261.45,-55.72C1299.15,-45.42 1352.2,-30.93 1386.72,-21.5"/>
<polygon fill="midnightblue" stroke="midnightblue" points="1260.46,-52.36 1251.74,-58.37 1262.31,-59.11 1260.46,-52.36"/>
</g>
</g>
</svg>
