<?xml version="1.0" encoding="UTF-8" standalone="no"?>
<!DOCTYPE svg PUBLIC "-//W3C//DTD SVG 1.1//EN"
 "http://www.w3.org/Graphics/SVG/1.1/DTD/svg11.dtd">
<!-- Generated by graphviz version 2.43.0 (0)
 -->
<!-- Title: include/stealcardevent.h Pages: 1 -->
<svg width="466pt" height="88pt"
 viewBox="0.00 0.00 465.50 88.00" xmlns="http://www.w3.org/2000/svg" xmlns:xlink="http://www.w3.org/1999/xlink">
<g id="graph0" class="graph" transform="scale(1 1) rotate(0) translate(4 84)">
<title>include/stealcardevent.h</title>
<!-- Node1 -->
<g id="node1" class="node">
<title>Node1</title>
<g id="a_node1"><a xlink:title=" ">
<polygon fill="#bfbfbf" stroke="black" points="128,-58.5 128,-79.5 274,-79.5 274,-58.5 128,-58.5"/>
<text text-anchor="middle" x="201" y="-65.9" font-family="Arial" font-size="12.00">include/stealcardevent.h</text>
</a>
</g>
</g>
<!-- Node2 -->
<g id="node2" class="node">
<title>Node2</title>
<g id="a_node2"><a xlink:href="Deck_8cpp.html" target="_top" xlink:title=" ">
<polygon fill="none" stroke="black" points="0,-0.5 0,-21.5 86,-21.5 86,-0.5 0,-0.5"/>
<text text-anchor="middle" x="43" y="-7.9" font-family="Arial" font-size="12.00">src/Deck.cpp</text>
</a>
</g>
</g>
<!-- Node1&#45;&gt;Node2 -->
<g id="edge1" class="edge">
<title>Node1&#45;&gt;Node2</title>
<path fill="none" stroke="midnightblue" d="M164.1,-54.92C135.22,-44.69 95.73,-30.69 69.81,-21.5"/>
<polygon fill="midnightblue" stroke="midnightblue" points="163.24,-58.33 173.84,-58.37 165.58,-51.73 163.24,-58.33"/>
</g>
<!-- Node3 -->
<g id="node3" class="node">
<title>Node3</title>
<g id="a_node3"><a xlink:href="Game_8cpp.html" target="_top" xlink:title=" ">
<polygon fill="none" stroke="black" points="104,-0.5 104,-21.5 194,-21.5 194,-0.5 104,-0.5"/>
<text text-anchor="middle" x="149" y="-7.9" font-family="Arial" font-size="12.00">src/Game.cpp</text>
</a>
</g>
</g>
<!-- Node1&#45;&gt;Node3 -->
<g id="edge2" class="edge">
<title>Node1&#45;&gt;Node3</title>
<path fill="none" stroke="midnightblue" d="M185.02,-50.79C176.12,-41.21 165.38,-29.64 157.95,-21.64"/>
<polygon fill="midnightblue" stroke="midnightblue" points="182.57,-53.3 191.94,-58.25 187.7,-48.54 182.57,-53.3"/>
</g>
<!-- Node4 -->
<g id="node4" class="node">
<title>Node4</title>
<g id="a_node4"><a xlink:href="main_8cpp.html" target="_top" xlink:title=" ">
<polygon fill="none" stroke="black" points="212,-0.5 212,-21.5 296,-21.5 296,-0.5 212,-0.5"/>
<text text-anchor="middle" x="254" y="-7.9" font-family="Arial" font-size="12.00">src/main.cpp</text>
</a>
</g>
</g>
<!-- Node1&#45;&gt;Node4 -->
<g id="edge3" class="edge">
<title>Node1&#45;&gt;Node4</title>
<path fill="none" stroke="midnightblue" d="M217.29,-50.79C226.36,-41.21 237.31,-29.64 244.87,-21.64"/>
<polygon fill="midnightblue" stroke="midnightblue" points="214.56,-48.58 210.23,-58.25 219.65,-53.39 214.56,-48.58"/>
</g>
<!-- Node5 -->
<g id="node5" class="node">
<title>Node5</title>
<g id="a_node5"><a xlink:href="StealCardEvent_8cpp.html" target="_top" xlink:title=" ">
<polygon fill="none" stroke="black" points="314.5,-0.5 314.5,-21.5 457.5,-21.5 457.5,-0.5 314.5,-0.5"/>
<text text-anchor="middle" x="386" y="-7.9" font-family="Arial" font-size="12.00">src/StealCardEvent.cpp</text>
</a>
</g>
</g>
<!-- Node1&#45;&gt;Node5 -->
<g id="edge4" class="edge">
<title>Node1&#45;&gt;Node5</title>
<path fill="none" stroke="midnightblue" d="M242.44,-55.46C276.4,-45.18 323.73,-30.85 354.61,-21.5"/>
<polygon fill="midnightblue" stroke="midnightblue" points="241.36,-52.13 232.8,-58.37 243.39,-58.83 241.36,-52.13"/>
</g>
</g>
</svg>
