<?xml version="1.0" encoding="UTF-8" standalone="no"?>
<!DOCTYPE svg PUBLIC "-//W3C//DTD SVG 1.1//EN"
 "http://www.w3.org/Graphics/SVG/1.1/DTD/svg11.dtd">
<!-- Generated by graphviz version 2.43.0 (0)
 -->
<!-- Title: tests/testcell.cpp Pages: 1 -->
<svg width="152pt" height="146pt"
 viewBox="0.00 0.00 152.00 146.00" xmlns="http://www.w3.org/2000/svg" xmlns:xlink="http://www.w3.org/1999/xlink">
<g id="graph0" class="graph" transform="scale(1 1) rotate(0) translate(4 142)">
<title>tests/testcell.cpp</title>
<!-- Node1 -->
<g id="node1" class="node">
<title>Node1</title>
<g id="a_node1"><a xlink:title=" ">
<polygon fill="#bfbfbf" stroke="black" points="28,-116.5 28,-137.5 132,-137.5 132,-116.5 28,-116.5"/>
<text text-anchor="middle" x="80" y="-123.9" font-family="Arial" font-size="12.00">tests/testcell.cpp</text>
</a>
</g>
</g>
<!-- Node2 -->
<g id="node2" class="node">
<title>Node2</title>
<g id="a_node2"><a xlink:title=" ">
<polygon fill="none" stroke="#bfbfbf" points="0,-58.5 0,-79.5 80,-79.5 80,-58.5 0,-58.5"/>
<text text-anchor="middle" x="40" y="-65.9" font-family="Arial" font-size="12.00">gtest/gtest.h</text>
</a>
</g>
</g>
<!-- Node1&#45;&gt;Node2 -->
<g id="edge1" class="edge">
<title>Node1&#45;&gt;Node2</title>
<path fill="none" stroke="midnightblue" d="M73.03,-116.25C67.47,-108.46 59.52,-97.33 52.82,-87.94"/>
<polygon fill="midnightblue" stroke="midnightblue" points="55.55,-85.75 46.89,-79.64 49.85,-89.81 55.55,-85.75"/>
</g>
<!-- Node3 -->
<g id="node3" class="node">
<title>Node3</title>
<g id="a_node3"><a xlink:href="cell_8h.html" target="_top" xlink:title=" ">
<polygon fill="none" stroke="black" points="98.5,-58.5 98.5,-79.5 143.5,-79.5 143.5,-58.5 98.5,-58.5"/>
<text text-anchor="middle" x="121" y="-65.9" font-family="Arial" font-size="12.00">cell.h</text>
</a>
</g>
</g>
<!-- Node1&#45;&gt;Node3 -->
<g id="edge2" class="edge">
<title>Node1&#45;&gt;Node3</title>
<path fill="none" stroke="midnightblue" d="M87.14,-116.25C92.84,-108.46 100.99,-97.33 107.86,-87.94"/>
<polygon fill="midnightblue" stroke="midnightblue" points="110.86,-89.78 113.94,-79.64 105.21,-85.64 110.86,-89.78"/>
</g>
<!-- Node4 -->
<g id="node4" class="node">
<title>Node4</title>
<g id="a_node4"><a xlink:title=" ">
<polygon fill="none" stroke="#bfbfbf" points="98,-0.5 98,-21.5 144,-21.5 144,-0.5 98,-0.5"/>
<text text-anchor="middle" x="121" y="-7.9" font-family="Arial" font-size="12.00">string</text>
</a>
</g>
</g>
<!-- Node3&#45;&gt;Node4 -->
<g id="edge3" class="edge">
<title>Node3&#45;&gt;Node4</title>
<path fill="none" stroke="midnightblue" d="M121,-58.25C121,-50.94 121,-40.69 121,-31.7"/>
<polygon fill="midnightblue" stroke="midnightblue" points="124.5,-31.64 121,-21.64 117.5,-31.64 124.5,-31.64"/>
</g>
</g>
</svg>
